<svg xmlns="http://www.w3.org/2000/svg" viewBox="0 0 307 56"><path fill="#c2c2c2" fill-rule="evenodd" d="M98.1 0 69.2 55.9h8.9l8.1-16H118l8.1 16h9.1L106.4 0H98Zm-8.7 33.5 10.6-21c.1-.3.2-.5.3-.7.4-.7.7-1.5 1-2.2.2-.6.4-1.1.6-1.7 0-.2.1-.4.2-.6.1.7.4 1.3.6 2s0 .2 0 .2c.2.5.4.9.6 1.4l.6 1.5 10.7 21.3H89.3ZM237.9.2h-8.1V56h8.1V.2Zm31.5 0v49h37V56h-44.9V.2h7.9Zm-61.8 16.4c0-6.7-3.2-10.4-5-11.9C197.8.4 191.9.3 187 .2s-38 0-38 0V56h7.9V6.9h30.8c3.6 0 7.5.2 10 4.1 1.1 1.7 1.7 3.8 1.7 5.9s-.5 4.1-1.9 5.9c-3.2 4.2-8.7 4.3-13 4.3h-21.9v6.6h21.3L202.8 56h10.4l-20.6-23.6c3.8-.6 15-2.5 15-15.8ZM51.7 25.8c-.6.3-2.6 1.3-2.8 1.3.1 0 .3 0 .5.1 2.9.9 10.1 3.1 10.1 13.2 0 4.3-1.7 8.5-5 11.3C49.4 56 41.8 56 35.8 56H0V.2h35.8c6 0 13.7.2 18.2 5.9 2.4 3.1 2.8 6.3 2.8 8.6 0 5.5-2.5 9.5-5.1 11.1ZM38.2 49.5c3.3 0 7.1-.2 10.1-2.7 2.9-2.5 3-5.9 3-7 0-4.1-2-5.5-3-6.1-.1-.1-.3-.2-.3-.3-2.8-2.2-6.6-2.3-9.8-2.3H13.6v-6.4h23.5c2.5 0 5.3 0 7.5-1.3 2.8-1.5 4-5.5 4-8.1S46.9 9.8 45 8.4c-2.8-1.7-6.2-1.7-9.2-1.7H7.9v42.9h30.3Z"/></svg>