<svg xmlns="http://www.w3.org/2000/svg" viewBox="0 0 154 56"><path fill="#c2c2c2" fill-rule="evenodd" d="M0 56V0h153.6v56H0Zm10.6-15.6h18.2s7.1-.1 7.1-7.3-1.4-5-2.9-6c1.1-1 2-2.6 2-5 0-7.2-6.7-7.3-7.1-7.3H10.6c.5.1.9.4.9.9v23.8c0 .5-.4.8-.9.9Zm47.7-.9c0 .5-.4.7-.9.9h6c-.5-.1-1.1-.5-1.4-.9l-6.2-10.2c1.5-.1 6.8-1.1 6.8-7.3s-6.7-7.3-7.1-7.3H42.6v3h11.2s5.4-.4 5.4 4.3-5.4 4.3-5.4 4.3H42.6v3h9.7l6.2 10.2Zm11.7.9h5.3c-.5-.1-.9-.4-.9-.9V15.6c0-.5.4-.8.9-.9H70c.5.1.9.4.9.9v23.8c0 .5-.4.8-.9.9Zm35.7-15.3c0 .5-.4.8-.9.9h-7.2l6.6-8.3 2.4-3H83.4c-.5-.1-.9-.4-.9-.9v4.8c0-.5.4-.8.9-.9h16.5L93.4 26h-10c-.5-.1-.9-.4-.9-.9v4.8c0-.5.4-.8.9-.9H91l-6.5 8.3-2.3 3h22.6c.5.1.9.4.9.9v-4.8c0 .5-.4.8-.9.9H88.6l6.6-8.3h9.6c.5.1.9.4.9.9v-4.8Zm6.2 2.4c0 7.3 6.6 13.3 14.8 13.3s14.8-6 14.8-13.3-6.6-13.3-14.8-13.3-14.8 6-14.8 13.3Zm29.2-10.9c0 .8.7 1.5 1.5 1.5s1.5-.7 1.5-1.5-.7-1.5-1.5-1.5-1.5.7-1.5 1.5Zm-14.4.5c-6.2 0-11.3 4.7-11.3 10.5s5 10.5 11.3 10.5 11.2-4.7 11.2-10.5-5-10.5-11.2-10.5Zm-100.6.6s5.4-.4 5.4 4.3c0 2.7-1.9 3.6-3.4 3.8H15v-8.1h11.1Zm1.6 11.1c1.4 0 4.8.6 4.8 4.3s-5.4 4.3-5.4 4.3H15v-8.6h12.6Zm114.9-13.4c-.7 0-1.2.5-1.2 1.2s.5 1.2 1.2 1.2 1.2-.5 1.2-1.2-.5-1.2-1.2-1.2Zm.6 1.9h-.3l-.3-.5h-.2v.5h-.3V16h.5c.1 0 .3 0 .4.1 0 0 .1.2.1.3v.2l-.2.2.3.5Zm-.8-1.1h.4v.4h-.4v-.4Z"/></svg>