<svg xmlns="http://www.w3.org/2000/svg" viewBox="0 0 364 56"><path fill="#c2c2c2" fill-rule="evenodd" d="M194.7 28.7c0 3.8-3 6.9-6.7 6.9s-6.7-3.1-6.7-6.9 3-6.9 6.7-6.9 6.7 3.1 6.7 6.9Zm-85.8-6.9c-3.7 0-6.8 3.1-6.8 7s3 7 6.8 7 6.8-3.1 6.8-7-3-7-6.8-7Zm122.1 0c-3.7 0-6.7 3.1-6.7 7s3 7 6.7 7 6.7-3.1 6.7-7-3-7-6.7-7ZM253.7 0h110.2v56H0V0h70.8v41.2h5.6V26.6c.2-2.5 2.2-4.6 4.9-4.6s4.9 2.1 4.9 4.6v14.6h5.5v-17c-.6-4.7-4-8.1-8.8-8.1s-4.8.9-6.4 2.5V0h171.6v41.1h5.6V26.5c.2-2.5 2.2-4.6 4.9-4.6s4.9 2.1 4.9 4.6v14.6h5.5v-17c-.6-4.7-4-8.1-8.8-8.1s-4.8.9-6.4 2.5V0ZM121.2 41V16.6h-5.5v2.6c-2.1-1.9-3.8-3-6.9-3-6.8 0-12.4 5.7-12.4 12.7s5.6 12.7 12.4 12.7 4.7-1 6.8-2.9v2.4h5.5Zm27.1 0V24.8c-.1-4.8-4.2-8.7-9.3-8.7s-5 1.1-6.7 2.8v-2.2H127v24.4h5.6V26.8c0-2.6 2.3-4.7 5.1-4.7s5 2.1 5 4.7v14.3h5.6Zm23.7-7.9c0-3.9-2.8-6-6.8-6.7l-3.7-.8c-1.6-.2-3.6-.7-3.6-2.4s1.6-2.2 3.6-2.2 3.9 1.5 3.9 2.7h6.2c-.7-4.3-4.8-7.5-9.9-7.5s-9.4 3.4-9.3 8.3c.1 3.5 3.9 5.5 8 6.4l1.4.3c2.9.4 4.5 1 4.6 2.4 0 1.7-1.5 2.9-3.9 2.9s-4.6-1.6-4.6-3.6H152c0 4.8 5 8.7 10.5 8.7s9.5-3.7 9.5-8.5Zm28-16.5h-5.1V19c-1.7-1.9-4.2-3-7.3-3-6.5 0-11.9 6-11.9 12.4s5.4 12.4 11.9 12.4 5.4-1.6 7.4-3.7v.5c0 4.2-3.4 7.6-7.5 7.6s-4.3-1-5.6-2.6H176c1.6 4.5 6.2 7.7 11.7 7.7s12.4-5.9 12.4-10.9V16.6Zm17.6 4.8V16c-2.8 0-5.2 1.1-6.2 2.7v-2.1h-5.3V41h5.8V25.8c.1-2.3 2.6-4.2 5.7-4.3Zm25.7 7.4c0-7-5.5-12.7-12.3-12.7s-12.3 5.7-12.3 12.7 5.5 12.7 12.3 12.7 12.3-5.7 12.3-12.7Zm30.2 0c0 7 5.4 12.7 12.1 12.7s9.6-3.4 11.3-8.1h-6a6.68 6.68 0 0 1-5.3 2.6c-3.2 0-5.8-2.1-6.5-5h18.6c.1-.7 0-1.5 0-2.2 0-7-5.4-12.7-12.1-12.7s-12.1 5.7-12.1 12.7Zm12.2-7.2c-2.9 0-5.4 1.9-6.3 4.3h12.5c-.8-2.5-3.3-4.3-6.3-4.3Z"/></svg>