<svg xmlns="http://www.w3.org/2000/svg" viewBox="0 0 191 56"><path fill="#c2c2c2" fill-rule="evenodd" d="M123.5 22.1c2.4.9 4.2 2.4 5.5 4.8.9 1.8 1.4 5.7 1.4 11.4 0 5.3-.5 9.2-1.6 11.7-1.1 2.7-2.7 4.4-4.7 5.1-.8.3-1.5.5-2.3.6-1.6.2-3.2.3-4.9.3h-.6c-1 0-2.1 0-3-.4-.5-.3-.9-.6-1.3-1l-.2-.2c-.3-.2-.6-.6-.6-.6l-1.4 2.2h-6.7V6.3l8.1-6.3v23.1c2.5-1.7 5.1-2.1 8-1.9 1.4.1 2.9.4 4.2.8Zm-3.8 28.7c.8-1.2 1.4-2.8 1.7-4.9.3-1.6.4-4.6.4-9 0-3.9-.4-6.9-1.4-9-.9-2.1-2.6-3.3-4.7-3.3-1.9 0-3.5 1-4.5 2.7v23.3c0 .6 1.3 1.3 1.7 1.5.9.3 2.1.4 3 .4 1.5 0 2.9-.6 3.8-1.8Zm54.7 5.2h8.2V0l-8.2 6.5V56Zm-10.9-17.4v-1.1c0-4.5 0-9.3-1.2-11.6-1.5-2.7-3.6-4.2-6.6-4.5-.6-.1-1.8-.2-3.3-.2-1.3 0-2.7 0-4 .2-3.2.3-5.5 1.7-7.1 4.4-1.6 2.7-2.4 6.8-2.4 12.2 0 3.5.2 6.4.7 8.6.6 2.8 2 5.1 4.1 6.8 2.1 1.7 4.5 2.6 7.1 2.6h12.8l-1.5-2.4c-3.5.4-5.6.7-6.5.7-4.3 0-7.3-2-8.2-5.8-.4-1.7-.7-3.5-.8-5.3v-.3c0-.7 0-1.2-.1-3.1h17.2v-1.2Zm-17.1-3.7c0-3.5.4-6.1 1.2-8 .8-1.9 2.2-2.9 4-2.9 1.6 0 2.9.7 3.8 2.1.9 1.4 1.4 3 1.5 4.9v4.5h-10.7v-.6ZM48.3 22h8v33.9h-8V22Zm7.9-13.2h-8v7.4h8V8.8Zm23.2 12.3c3.1 0 5.4.3 7 1 2.2.9 3.8 2.4 5 4.8.8 1.8 1.3 5.7 1.3 11.4s-.5 9.2-1.4 11.7c-1 2.7-2.4 4.4-4.3 5.1-1.3.6-3.7.9-7 .9h-1.1c-3.3 0-5.6-.3-7-1-1.9-.8-3.4-2.5-4.3-5.1-.8-2.3-1.2-6.1-1.2-11.1s.5-10 1.3-12c1-2.4 2.6-4 4.7-4.8 1.6-.6 4-1 7-1ZM83 50.9c.8-1.2 1.2-2.8 1.5-4.9.2-1.6.3-4.6.3-8.9 0-3.9-.4-6.9-1.3-9-.8-2.1-2.3-3.3-4.2-3.3-1.9 0-3.5 1.2-4.4 3.2-.9 2.1-1.3 5-1.3 8.9 0 4.5.1 7.6.4 9.2.5 4.1 2.5 6.5 5.7 6.5 1.3 0 2.4-.7 3.1-1.8ZM25.7 0c3.6 0 6.5 1.3 8.7 4.1 2 2.6 3 5.8 3 9.8 0 3-.7 6-2 8.7-1.5 2.8-3.5 4.7-6.1 5.9-.1 0-.2.2-.3.3v.4l7.8 22.2 2 4.5h-9.3l-9-24.6c-.2-.6-.5-1.2-.8-1.7 0-.2-.4-.2-.6-.2h-3.3s-.1 0-.2.1-.2.3-.2.4V56h-8V12.3l8.1-6.6v18.5c0 .1.1.3.2.4 0 0 .1 0 .2.1h4c1.1 0 2.1-.2 3.2-.4 1.9-.5 3.9-1.4 5-2.8a11 11 0 0 0 2.3-7.1c0-2.9-.8-5.3-2.5-7.1-1.4-1.5-3.6-2.4-6.4-2.6H.2v-.1L6.1 0h19.6Zm158.2 3.6c0-1.8 1.5-3.3 3.2-3.3a3.26 3.26 0 0 1 3.2 3.3c0 1.8-1.5 3.3-3.2 3.3a3.26 3.26 0 0 1-3.2-3.3Zm5.8 0c0-.5-.2-1-.5-1.4-.3-.4-.7-.7-1.2-.9-.5-.2-1-.2-1.5-.1s-.9.4-1.3.7c-.4.4-.6.8-.7 1.3 0 .5 0 1 .2 1.5s.5.9.9 1.1c.4.3.9.4 1.4.4.3 0 .7 0 1-.2.3-.1.6-.3.8-.6.2-.2.4-.5.5-.9.1-.3.2-.7.2-1Zm-3.9 1.6Zm0-3.4v3.4h.8V3.9c.5 0 .6 0 .8.4l.3.6V5l.1.1c.1.1 0 0 .1 0h.8c0-.2-.2-.4-.3-.6 0-.1-.1-.3-.2-.4-.1-.3-.3-.5-.6-.7.4-.2.6-.6.5-1 0-.4-.3-.7-.8-.8h-1.8Zm1 1.5h-.2v-.9h.6c.2 0 .3.2.3.4s-.1.4-.3.4h-.4Z"/></svg>