<svg xmlns="http://www.w3.org/2000/svg" width="82" height="140" viewBox="0 0 82 140"><path fill="#4ab1e5" d="M38.16 43.37a11.85 11.85 0 0 1-11.91-11.76V11.76C26.25 5.28 31.59 0 38.16 0s11.91 5.28 11.91 11.76v19.85c0 6.48-5.34 11.76-11.91 11.76m0-38.62a7.06 7.06 0 0 0-7.1 7.01v19.85c0 3.87 3.19 7.01 7.1 7.01s7.1-3.15 7.1-7.01V11.76a7.06 7.06 0 0 0-7.1-7.01"/><path fill="#6691cb" d="M11.61 22.75C5.26 22.75.09 17.65.09 11.38S5.26 0 11.61 0s11.52 5.1 11.52 11.37-5.17 11.37-11.52 11.37Zm0-18c-3.7 0-6.71 2.97-6.71 6.63s3.01 6.63 6.71 6.63 6.71-2.97 6.71-6.63-3.01-6.63-6.71-6.63"/><path fill="#4ab1e5" d="M72.89 43.14H61.91a8.9 8.9 0 0 1-8.93-8.82v-.71a8.9 8.9 0 0 1 8.93-8.82h10.98a8.9 8.9 0 0 1 8.93 8.82v.71a8.9 8.9 0 0 1-8.93 8.82M61.91 29.55a4.1 4.1 0 0 0-4.12 4.06v.71a4.1 4.1 0 0 0 4.12 4.06h10.98a4.1 4.1 0 0 0 4.12-4.06v-.71a4.1 4.1 0 0 0-4.12-4.06z"/><path fill="#94979b" d="M69.47 22.11h-3.76A12.47 12.47 0 0 1 53.18 9.73V1.11h4.81v8.62c0 4.2 3.46 7.63 7.73 7.63h3.76a7.7 7.7 0 0 0 7.73-7.63h4.81c0 6.82-5.62 12.38-12.53 12.38ZM22.73 41.95h-4.81V35.5a5.14 5.14 0 0 0-5.16-5.12H9.95a5.14 5.14 0 0 0-5.16 5.12H0a9.9 9.9 0 0 1 9.97-9.86h2.81c5.5 0 9.97 4.43 9.97 9.86v6.45z"/><path fill="#fff" d="M1.74 66.29c.26 0 .33.11.33.33 0 1.72 1.22 2.83 4.42 2.83 2.91 0 3.95-1.21 3.95-2.67 0-.84-.49-1.71-2.4-1.86l-3.92-.28C1.27 64.41 0 63.16 0 61.21c0-2.11 1.86-4.38 5.97-4.38 4.37 0 5.94 1.97 5.94 4.36 0 .11-.09.23-.35.23h-1.39c-.24 0-.33-.07-.35-.4-.12-1.2-1.1-2.44-3.86-2.44-2.42 0-3.9 1.14-3.9 2.62 0 .84.57 1.56 2.23 1.67l3.86.28c3.22.25 4.34 1.81 4.34 3.62s-1.6 4.43-6.01 4.43-6.49-2-6.49-4.43v-.23q-.02-.24.28-.25zm29.6-9.23a.3.3 0 0 1 .28.28V70.7a.3.3 0 0 1-.28.28h-1.5a.3.3 0 0 1-.28-.28V60.65h-.07s-.3.79-.82 1.51l-5 7.05-5-7.05a7 7 0 0 1-.82-1.51h-.07V70.7a.3.3 0 0 1-.28.28H16a.3.3 0 0 1-.28-.28V57.34a.3.3 0 0 1 .28-.28h.96q.25 0 .45.23l6.25 8.77h.05l6.25-8.77a.6.6 0 0 1 .45-.23h.97ZM45.23 68.1H37.4l-1.29 2.58c-.16.3-.21.3-.49.3h-1.53c-.14 0-.21-.09-.21-.16s.07-.18.12-.28l6.91-13.48h.85l6.91 13.48c.05.09.12.21.12.28s-.07.16-.21.16h-1.53c-.28 0-.33 0-.49-.3zm-6.93-1.76h6.04l-1.88-3.71a42 42 0 0 1-1.06-2.55h-.14s-.7 1.86-1.06 2.55zm12.73-9a.3.3 0 0 1 .28-.28h6.01c3.31 0 5.73 1.62 5.73 4.57 0 2.25-1.46 3.67-3.62 4.2v.05s.49.44.89 1L63 70.55c.14.18.16.25.16.3q.01.14-.19.14h-1.93a.5.5 0 0 1-.33-.16l-3.48-4.76h-4.16v4.64a.3.3 0 0 1-.28.28h-1.5a.3.3 0 0 1-.28-.28V57.35Zm2.07 1.48v5.59h4.18c2.16 0 3.71-.98 3.71-2.78s-1.53-2.81-3.71-2.81zm11.14-.32v-1.11c0-.14.19-.33.33-.33h13.2c.14 0 .33.18.33.33v1.11c0 .14-.19.33-.33.33H72.2v11.88a.3.3 0 0 1-.28.28h-1.5a.3.3 0 0 1-.28-.28V58.83h-5.57c-.14 0-.33-.18-.33-.33M.28 93.68A.3.3 0 0 1 0 93.4V80.04a.3.3 0 0 1 .28-.28h6.6c3.15 0 4.79 1.58 4.79 3.74 0 1.21-.47 2.09-1.29 2.72v.05a3.6 3.6 0 0 1 1.88 3.32c0 2.67-1.95 4.11-5.26 4.11H.28Zm1.79-12.16v3.97h5.24c1.9 0 2.3-.86 2.3-2s-.68-1.97-2.77-1.97zm4.89 10.4c2.26 0 3.24-.79 3.24-2.34s-1.01-2.32-3.24-2.32H2.07v4.66zm17.59-1.12h-7.83l-1.29 2.58c-.16.3-.21.3-.49.3h-1.53c-.14 0-.21-.09-.21-.16s.07-.18.12-.28l6.91-13.48h.85l6.91 13.48c.05.09.12.21.12.28s-.07.16-.21.16h-1.53c-.28 0-.33 0-.49-.3zm-6.93-1.76h6.04l-1.88-3.71a42 42 0 0 1-1.06-2.55h-.14s-.7 1.86-1.06 2.55zm8.83-7.84v-1.11c0-.14.19-.33.33-.33h13.2c.14 0 .33.18.33.33v1.11c0 .14-.19.33-.33.33h-5.57v11.88a.3.3 0 0 1-.28.28h-1.5a.3.3 0 0 1-.28-.28V81.53h-5.57c-.14 0-.33-.18-.33-.33m30.22 12.2a.3.3 0 0 1-.28.28h-1.5a.3.3 0 0 1-.28-.28v-5.39h-9.73v5.39a.3.3 0 0 1-.28.28h-1.5a.3.3 0 0 1-.28-.28V80.04a.3.3 0 0 1 .28-.28h1.5a.3.3 0 0 1 .28.28v6.22h9.73v-6.22a.3.3 0 0 1 .28-.28h1.5a.3.3 0 0 1 .28.28zM0 103.21a.3.3 0 0 1 .28-.28h6.01c3.31 0 5.73 1.62 5.73 4.57 0 2.25-1.46 3.67-3.62 4.2v.05s.49.44.89 1l2.68 3.67c.14.18.16.26.16.3q.01.14-.19.14h-1.93a.5.5 0 0 1-.33-.16l-3.48-4.76H2.07v4.64a.3.3 0 0 1-.28.28H.28a.3.3 0 0 1-.28-.28v-13.36Zm2.07 1.48v5.59h4.18c2.16 0 3.71-.98 3.71-2.78s-1.53-2.81-3.71-2.81zm27.53 5.19c0 4.5-3.41 7.19-7.61 7.19s-7.61-2.69-7.61-7.19 3.43-7.19 7.61-7.19 7.61 2.69 7.61 7.19m-13.16 0c0 3.38 2.52 5.43 5.55 5.43s5.54-2.04 5.54-5.43-2.44-5.43-5.54-5.43-5.55 2-5.55 5.43m30.74 0c0 4.5-3.41 7.19-7.61 7.19s-7.61-2.69-7.61-7.19 3.43-7.19 7.61-7.19 7.61 2.69 7.61 7.19m-13.16 0c0 3.38 2.52 5.43 5.55 5.43s5.54-2.04 5.54-5.43-2.44-5.43-5.54-5.43-5.55 2-5.55 5.43m31.99-6.96a.3.3 0 0 1 .28.28v13.36a.3.3 0 0 1-.28.28h-1.5a.3.3 0 0 1-.28-.28v-10.05h-.07s-.31.79-.82 1.51l-5 7.05-5-7.05a7 7 0 0 1-.82-1.51h-.07v10.05a.3.3 0 0 1-.28.28h-1.5a.3.3 0 0 1-.28-.28V103.2a.3.3 0 0 1 .28-.28h.96q.25 0 .45.23l6.25 8.77h.05l6.25-8.77a.6.6 0 0 1 .45-.23h.97Zm5.22 9.24c.26 0 .33.11.33.33 0 1.71 1.22 2.83 4.42 2.83 2.91 0 3.95-1.21 3.95-2.67 0-.83-.49-1.71-2.4-1.85l-3.92-.28c-2.84-.23-4.11-1.49-4.11-3.43 0-2.11 1.86-4.38 5.97-4.38 4.37 0 5.94 1.97 5.94 4.36 0 .11-.09.23-.35.23h-1.39c-.24 0-.33-.07-.35-.4-.12-1.2-1.1-2.44-3.85-2.44-2.42 0-3.9 1.14-3.9 2.62 0 .84.57 1.56 2.23 1.67l3.86.28c3.22.25 4.34 1.81 4.34 3.62s-1.6 4.43-6.01 4.43-6.49-2-6.49-4.43v-.23q-.02-.25.28-.26z"/><path fill="#4ab1e5" d="M0 132.43c0-.08.08-.15.15-.15h3.28c1.81 0 3.13.89 3.13 2.49 0 1.23-.79 2-1.97 2.29v.02s.27.24.49.55l1.46 2q.1.14.09.17.01.08-.1.08H5.48a.3.3 0 0 1-.18-.09l-1.9-2.6H1.13v2.53c0 .08-.08.15-.15.15H.15c-.08 0-.15-.08-.15-.15zm1.12.81v3.05H3.4c1.18 0 2.02-.53 2.02-1.52s-.83-1.53-2.02-1.53zm8.64 3.19v2.48h4.87c.08 0 .18.1.18.18v.61c0 .07-.1.18-.18.18H8.78c-.08 0-.15-.08-.15-.15v-7.29c0-.08.08-.15.15-.15h5.72c.08 0 .18.1.18.18v.61c0 .08-.1.18-.18.18H9.75v2.23h4.36c.08 0 .18.1.18.18v.61c0 .08-.1.18-.18.18H9.75Zm8.64-1.77a5 5 0 0 1-.49-.61h-.04v5.67q-.02.13-.15.15h-.82c-.08 0-.15-.08-.15-.15v-7.3c0-.08.08-.15.15-.15h.62l5.04 5.09c.33.33.58.71.58.71h.05v-5.65c0-.08.08-.15.15-.15h.82q.13.01.15.15v7.3c0 .08-.08.15-.15.15h-.6l-5.15-5.22Zm16.28 1.41c0 2.46-1.86 3.93-4.16 3.93s-4.16-1.47-4.16-3.93 1.87-3.93 4.16-3.93 4.16 1.47 4.16 3.93m-7.18 0c0 1.85 1.37 2.96 3.03 2.96s3.03-1.11 3.03-2.96-1.33-2.96-3.03-2.96-3.03 1.09-3.03 2.96m11.39.77c.19.38.52 1.2.52 1.2h.08s.33-.82.52-1.2l2.23-4.39c.09-.16.12-.16.27-.16h.9q.11.01.1.07l-.06.17-3.77 7.36h-.46l-3.77-7.36q-.05-.1-.06-.17-.01-.09.1-.07h.9c.15 0 .18 0 .27.16zm10.37 1.46h-4.27l-.71 1.41c-.09.17-.12.17-.27.17h-.83q-.12-.02-.12-.09.02-.09.06-.15l3.77-7.35h.46l3.77 7.35q.05.08.06.15 0 .1-.12.09h-.83c-.15 0-.18 0-.27-.17l-.72-1.41Zm-3.78-.96h3.3l-1.03-2.03c-.19-.38-.58-1.39-.58-1.39h-.08s-.39 1.01-.58 1.39zm5.14-4.28v-.61c0-.08.1-.18.18-.18h7.21c.08 0 .18.1.18.18v.61c0 .08-.1.18-.18.18h-3.04v6.48c0 .08-.08.15-.15.15H54c-.07 0-.15-.08-.15-.15v-6.48h-3.04c-.08 0-.18-.1-.18-.18Zm10.37 6.66q-.02.14-.15.15h-.82c-.08 0-.15-.08-.15-.15v-7.29c0-.08.08-.15.15-.15h.82q.13.02.15.15zm10.38-3.65c0 2.46-1.86 3.93-4.16 3.93s-4.16-1.47-4.16-3.93 1.87-3.93 4.16-3.93 4.16 1.47 4.16 3.93m-7.18 0c0 1.85 1.37 2.96 3.03 2.96s3.03-1.11 3.03-2.96-1.33-2.96-3.03-2.96-3.03 1.09-3.03 2.96m10.89-1.41a5 5 0 0 1-.49-.61h-.04v5.67q-.02.13-.15.15h-.82c-.08 0-.15-.08-.15-.15v-7.3c0-.08.08-.15.15-.15h.62l5.04 5.09c.33.33.58.71.58.71h.05v-5.65c0-.08.08-.15.15-.15h.82q.13.01.15.15v7.3c0 .08-.08.15-.15.15h-.6l-5.15-5.22Z"/></svg>