<svg xmlns="http://www.w3.org/2000/svg" width="60" height="22" viewBox="0 0 60 22" fill="#ffffff"><path d="m33.64,9.47v3.28c0,.91-.28,1.53-.85,1.85-.57.32-1.56.48-2.97.48h-3.45V7.02h3.44c1.37,0,2.35.17,2.95.51.58.35.88.99.88,1.94Zm-1.95,3.28v-3.32c0-.39-.16-.66-.47-.81-.31-.15-.8-.22-1.43-.22h-1.48v5.31h1.42c.75,0,1.26-.06,1.54-.17.29-.11.42-.37.42-.79Z"/><path d="m41.08,11.25v1.77c0,.39-.06.73-.19,1-.13.28-.28.49-.46.64-.19.15-.42.27-.72.35-.3.08-.57.14-.81.15-.25.02-.54.03-.89.03s-.64,0-.89-.03c-.25-.03-.52-.08-.81-.15-.3-.08-.53-.2-.72-.35-.19-.15-.34-.37-.46-.64-.13-.28-.19-.61-.19-1v-1.77c0-.41.07-.77.19-1.06.13-.3.29-.52.47-.68.19-.16.43-.28.73-.36.3-.08.57-.14.8-.16.24-.03.52-.03.86-.03s.63,0,.86.03c.24.02.51.08.8.16.3.08.54.21.73.36.19.16.35.38.47.68.14.3.19.65.19,1.06Zm-1.82,1.99v-2.27c0-.32-.09-.55-.25-.69-.17-.14-.5-.2-1-.2s-.83.07-1,.2c-.17.14-.25.36-.25.69v2.27c0,.31.09.53.25.66.16.13.49.19,1,.19s.84-.06,1-.19c.18-.12.25-.34.25-.66Z"/><path d="m48.45,11.25v1.77c0,.39-.06.73-.19,1-.13.28-.28.49-.46.64-.19.15-.42.27-.71.35-.3.08-.57.14-.81.15-.24.02-.54.03-.89.03s-.64,0-.89-.03c-.25-.03-.52-.08-.81-.15-.3-.08-.53-.2-.71-.35-.19-.15-.34-.37-.47-.64-.13-.28-.19-.61-.19-1v-1.77c0-.41.07-.77.19-1.06.13-.3.29-.52.47-.68s.43-.28.73-.36c.3-.08.57-.14.8-.16.24-.03.52-.03.86-.03s.63,0,.86.03c.24.02.51.08.8.16.3.08.54.21.73.36.19.16.35.38.47.68.12.3.19.65.19,1.06Zm-1.82,1.99v-2.27c0-.32-.09-.55-.25-.69-.17-.14-.5-.2-1-.2s-.83.07-1,.2c-.17.14-.24.36-.24.69v2.27c0,.31.08.53.24.66.16.13.5.19,1,.19s.84-.06,1-.19c.17-.12.25-.34.25-.66Z"/><path d="m53.81,10.45h-.62c-.5,0-.87.08-1.13.23-.25.15-.38.41-.38.79v3.62h-1.82v-6.02h1.73v1.06c0-.3.18-.57.52-.81.34-.25.69-.36,1.05-.36h.65v1.5Z"/><path d="m60,12.74v.76c0,.3-.05.56-.17.77-.11.22-.25.38-.42.51-.17.12-.39.21-.67.28-.27.07-.53.11-.79.13-.25.02-.55.03-.89.03-.65,0-1.45-.06-2.38-.19v-1.21c1.15.18,1.96.26,2.4.26.36,0,.64-.03.83-.1.19-.07.3-.21.3-.41v-.37c0-.19-.05-.33-.16-.43-.11-.09-.34-.14-.69-.14h-.79c-.63,0-1.12-.13-1.47-.38-.36-.25-.53-.63-.53-1.12v-.73c0-.55.26-.92.79-1.13.52-.2,1.26-.31,2.21-.31.4,0,1.11.03,2.14.11v1.16c-1.29-.1-2.02-.15-2.19-.15-.51,0-.83.03-.96.1-.14.07-.19.2-.19.41v.32c0,.1.05.19.15.27.1.08.26.13.48.13h.8c1.47,0,2.21.49,2.21,1.45Z"/><path d="m29.36,18.44v1.57c0,.19-.04.34-.13.46-.08.13-.2.22-.36.28-.15.06-.3.1-.45.13-.14.03-.31.03-.47.03-.93,0-1.4-.3-1.4-.9v-1.57c0-.63.47-.95,1.4-.95.94,0,1.41.33,1.41.95Zm-.48,1.57v-1.58c0-.41-.3-.62-.92-.62-.13,0-.24,0-.35.03-.1.02-.19.04-.29.08-.09.04-.16.1-.22.19-.05.08-.08.19-.08.31v1.58c0,.38.3.57.93.57.62,0,.92-.18.92-.57Z"/><path d="m32.84,20.87h-.47v-.3c-.05.24-.32.35-.81.35-.33,0-.55-.06-.68-.18-.12-.12-.19-.3-.19-.53v-1.82h.47v1.79c0,.06,0,.11.02.15,0,.04.03.08.06.13.03.04.09.08.16.09.08.03.17.03.29.03.25,0,.43-.03.53-.07.1-.05.15-.14.15-.26v-1.87h.47v2.48Z"/><path d="m35.79,20.88c-.16.03-.34.04-.52.04-.31,0-.52-.05-.65-.16-.12-.11-.19-.31-.19-.61v-1.45h-.55v-.3h.55v-.77h.47v.77h.89v.3h-.88v1.48c0,.18.03.3.1.35.07.06.2.09.41.09.05,0,.18-.02.37-.04v.3h0Z"/><path d="m38.74,20.01v.21c0,.27-.09.45-.28.55-.19.1-.46.15-.8.15-.26,0-.55-.02-.85-.06v-.35c.42.07.7.09.86.09.2,0,.36-.02.47-.06.1-.04.15-.12.15-.24v-.25c0-.11-.03-.18-.11-.23-.07-.04-.19-.07-.35-.07h-.29c-.26,0-.46-.05-.59-.16-.14-.11-.2-.25-.2-.44v-.23c0-.39.37-.58,1.11-.58.09,0,.33.02.75.04v.33c-.3-.05-.55-.08-.77-.08-.24,0-.41.03-.5.08-.08.05-.14.13-.14.24v.21c0,.17.15.25.46.25h.29c.53,0,.8.2.8.6Z"/><path d="m42.15,19.23v.86c0,.15-.02.29-.06.39-.03.11-.09.19-.14.24-.06.06-.14.1-.24.14-.11.03-.21.05-.3.06-.1,0-.23,0-.39,0-.2,0-.36,0-.48-.02-.12-.02-.23-.05-.35-.1-.11-.05-.19-.14-.25-.25-.05-.12-.08-.27-.08-.46v-.86c0-.16.02-.3.06-.41.04-.11.08-.2.14-.26.06-.06.14-.11.25-.14.11-.03.21-.05.3-.06.09,0,.22,0,.39,0s.3,0,.39,0c.09,0,.19.03.3.06.11.03.19.08.24.14.06.06.1.15.14.26s.06.25.06.41Zm-.47.93v-1.01c0-.23-.05-.37-.14-.42-.09-.05-.27-.08-.53-.08s-.44.03-.53.08c-.09.06-.14.19-.14.42v1.01c0,.11.02.19.03.26.02.07.07.11.14.14.07.03.14.05.2.05.07,0,.17,0,.3,0s.24,0,.3,0c.07,0,.14-.03.2-.05.07-.03.11-.08.14-.14,0-.07.02-.15.02-.26Z"/><path d="m45.61,20.87h-.46v-.3c-.05.24-.32.35-.81.35-.33,0-.55-.06-.68-.18-.13-.12-.19-.3-.19-.53v-1.82h.47v1.79c0,.06,0,.11.02.15,0,.04.03.08.07.13.03.04.09.08.16.09.08.03.17.03.29.03.25,0,.43-.03.53-.07.1-.05.15-.14.15-.26v-1.87h.46v2.48h0Z"/><path d="m48.34,18.74h-.25c-.21,0-.36.03-.47.08-.1.05-.15.16-.15.3v1.75h-.47v-2.48h.44v.41c0-.12.08-.23.22-.32.15-.09.3-.14.46-.14h.23v.39h0Z"/><path d="m51.15,20.85c-.23.05-.49.08-.8.08-.15,0-.27,0-.36,0-.08,0-.18-.03-.29-.05-.11-.03-.19-.07-.25-.13-.06-.05-.1-.14-.14-.24s-.06-.24-.06-.39v-.91c0-.14.02-.25.04-.35.03-.1.07-.18.12-.24.05-.06.11-.11.17-.15.06-.03.14-.07.24-.08.1-.02.19-.03.26-.03.08,0,.18,0,.31,0,.24,0,.47.03.71.08v.34c-.26-.07-.52-.1-.76-.1-.25,0-.42.03-.5.09-.08.06-.12.19-.12.39v1.01c0,.18.04.3.14.36.08.06.26.09.53.09.24,0,.49-.03.75-.09v.34h0Z"/><path d="m52.78,17.98h-.46v-.48h.46v.48Zm0,2.89h-.46v-2.48h.46v2.48Z"/><path d="m56.32,20.87h-.46v-1.79c0-.06,0-.11-.02-.15,0-.04-.03-.08-.07-.13-.03-.04-.08-.08-.16-.1-.08-.03-.17-.03-.29-.03-.27,0-.45.03-.54.08-.09.06-.14.17-.14.32v1.79h-.46v-2.48h.46v.3c.05-.24.32-.35.81-.35.33,0,.56.06.68.18.13.12.19.3.19.53v1.82h0Z"/><path d="m59.83,18.39v2.71c0,.35-.1.59-.3.71-.19.12-.49.19-.89.19-.35,0-.63-.02-.85-.06v-.33c.4.05.69.08.9.08.24,0,.41-.04.52-.11.11-.08.16-.2.16-.37v-.59c0,.12-.08.19-.24.24s-.33.08-.52.08c-.38,0-.64-.06-.78-.17-.14-.11-.21-.3-.21-.58v-1.01c0-.3.08-.5.24-.63.16-.13.42-.19.78-.19.43,0,.69.09.76.3v-.24h.44v-.03Zm-.47,1.81v-1.12c0-.16-.04-.27-.13-.33-.08-.06-.27-.09-.54-.09-.25,0-.42.03-.5.08-.08.06-.12.17-.12.33v1.12c0,.17.04.28.13.34.09.05.25.08.51.08.24,0,.4-.03.51-.08.09-.04.14-.15.14-.32Z"/><path d="m12.12,1.92v18.09l9.93,1.92V0l-9.93,1.92Zm7.74,6.22h-2.35v6.89h-1.48v-6.89h-2.33v-1.24h6.16v1.24Z"/><path d="m0,21.92l9.93-1.92V1.92L0,0v21.92ZM4.52,6.89h1.49v8.14h-1.49V6.89Z"/></svg>