<svg xmlns="http://www.w3.org/2000/svg" width="38" height="27" viewBox="0 0 38 27"><path fill="#4ab1e5" d="M33.54 13.11c-.48-.24-.88-.39-1.35-.55L38 .08h-6.69l-5.18 8.53a40.47 40.47 0 0 0-3.27 6.16c-.64 1.58-.96 3.08-.96 4.5s.32 2.76 1.04 3.95a7.18 7.18 0 0 0 2.79 2.76c1.19.63 2.47 1.03 3.9 1.03s2.71-.32 3.9-1.03a7.06 7.06 0 0 0 2.79-2.68c.72-1.18 1.04-2.45 1.04-3.79s-.32-2.53-1.04-3.71a7.77 7.77 0 0 0-2.79-2.76v.08ZM9.4.08 4.22 8.61a40.47 40.47 0 0 0-3.27 6.16c-.64 1.58-.96 3.08-.96 4.5s.32 2.76 1.04 3.95a7.18 7.18 0 0 0 2.79 2.76c1.19.63 2.47 1.03 3.9 1.03s2.71-.32 3.9-1.03a7.06 7.06 0 0 0 2.79-2.68c.72-1.18 1.04-2.45 1.04-3.79s-.32-2.53-1.04-3.71a7.77 7.77 0 0 0-2.79-2.76c-.48-.24-.88-.39-1.35-.55L16.09 0H9.4v.08Z"/></svg>