<svg xmlns="http://www.w3.org/2000/svg" width="193" height="32" viewBox="0 0 193 32"><defs><clipPath id="a"><path fill="none" stroke-width="0" d="M168 0h25v32h-25z"/></clipPath><clipPath id="b"><path fill="none" stroke-width="0" d="M0 0h55v32H0z"/></clipPath></defs><g clip-path="url(#a)"><path fill="#0059b3" d="M192.49 27.8c0 1.05-.42 1.61-1.27 1.96-3.24 1.26-7.03 1.89-10.69 1.89s-7.46-.63-10.69-1.89c-.84-.35-1.27-.91-1.27-1.96V.35h23.91V27.8Z"/><path fill="none" stroke="#fff" stroke-width=".98" d="M192.49 27.8c0 1.05-.42 1.61-1.27 1.96-3.24 1.26-7.03 1.89-10.69 1.89s-7.46-.63-10.69-1.89c-.84-.35-1.27-.91-1.27-1.96V.35h23.91V27.8Z"/><path fill="#ffdf01" d="M174.98 17.09c-3.31-2.03-4.43-2.94-4.5-4.34 0-.28.07-.77.14-1.05l-.28-.21c-.28.42-.42.91-.42 1.4 0 .77.28 1.4.56 1.82.49.7.99 1.19 2.18 2.03a8.22 8.22 0 0 1 2.67 3.29h.21V18.7c1.76.98 3.31 1.89 4.08 3.57h.21c-.35-1.68-1.34-3.01-4.85-5.18Zm9.71-4.48c-.7.35-1.2.77-1.69 1.4l1.48-.07c.07-.7.14-1.12.21-1.33Zm5.35 5.25c.14-.35.28-.77.28-1.12l-2.18-.14a5.56 5.56 0 0 1-.42 1.54l2.32-.28Zm-2.32-5.39c.14.42.28.84.35 1.19l1.27-.07a4.48 4.48 0 0 0-1.62-1.12Zm-.56 1.26a7.14 7.14 0 0 0-.63-1.54h-.7c-.21.49-.35 1.05-.49 1.61l1.83-.07Zm1.06.7c.07.56.07 1.05.07 1.54l2.11-.14a4.22 4.22 0 0 0-.42-1.33l-1.76-.07Zm-.7 1.54c0-.56-.07-1.05-.21-1.61l-2.11-.07c-.14.63-.21 1.26-.28 1.82l2.6-.14Zm.28-4.48.28-.35-.35-.49.07-.14 1.06.56-.21.7c.14.07.35.21.56.35l.7-1.12-1.76-.91h-3.94l-3.24 1.89a7.6 7.6 0 0 1 1.55 1.33 4.77 4.77 0 0 1 5.28-1.82Zm-7.95-.07 1.76-1.05a2.31 2.31 0 0 0-1.2-.28c-.63 0-1.62.28-2.11.35.21.14 1.06.63 1.55.98Zm.42-3.99c-.63-.14-.99-.07-1.34.28.21.07.42.14.63.14.35-.07.56-.28.7-.42Zm9.99 14.91h-.21c0-1.26-1.12-1.54-2.32-1.54H184c.14.63.14 1.33.07 1.96h-.21c-.35-2.73-1.9-4.13-4.08-5.6v1.26h-.21c-.56-1.33-1.83-2.52-3.09-3.36l-.99-.7v1.33h-.21c-.49-1.33-1.48-2.38-2.74-3.57-1.41-1.26-2.04-2.03-2.32-2.94a3.99 3.99 0 0 1-.28-1.54c0-1.05.49-2.03 1.2-2.38v.49c-.35.42-.49.98-.49 1.54 0 .49.14 1.12.35 1.61.84 1.54 3.52 3.43 5.27 4.55 5.42 3.57 6.47 4.2 7.39 6.16.07.21.21.49.28.84.77-.14 3.59-.56 4.15-.63.07 0 .28-.07.42-.07a4 4 0 0 0 1.2-1.19l-2.04-.14c-.07.21-.21.42-.28.56h-.14c.07-.21.07-.42.14-.63l-.56-.07v-.14l.56-.07c.14-.56.14-1.12.14-1.61l-2.6-.14v.77h-.14c-.07-.28-.07-.49-.14-.77h-.56v-.14h.56c-.07-.63-.07-1.26-.07-1.89l-1.55-.07.21.42c.35.91.28 1.96.14 2.45h-.21c0-.56-.21-1.26-.42-1.68-.42-.98-1.34-1.89-2.95-2.87v1.26h-.21c-.49-1.68-1.83-2.59-3.8-3.57-1.62-.84-2.11-1.82-2.04-3.36l.56.35a2.43 2.43 0 0 0 2.39 2.24c.7 0 1.34-.07 1.97-.21.91-.21 1.69-.35 2.39-.07v-.84h-.56c-.21.14-.56.35-1.13.35-.63 0-1.83-.35-1.83-1.68 0-1.19.98-1.33 1.76-1.33h1.41c.21 0 .28-.07.42-.14a.53.53 0 0 0 .14-.28V3.79h-3.73v1.47l-1.41-.56v-.35h.7v-.56h-2.46V2.6h-.84c-.49 0-.99.28-1.05.91 0 .63.21 1.12.84 1.12h.14v.7h-.14c-1.06 0-1.9-.77-1.9-1.89s.91-1.96 2.11-1.96h1.83v1.19h7.03v1.82c0 .28 0 .7-.07.98 0 .21-.07.49-.42.77-.21.14-.56.21-1.06.21-.42 0-.84 0-1.27-.07-.77-.07-1.06.28-1.06.56v.21c.35-.28.92-.49 1.48-.28 1.05.35 1.34.35 1.9-.07l.07.14c-.07.07-.14.21-.35.35h.49v2.8l1.62-.98h4.5l2.18 1.12c.28.14.35.35.42.56 0 .21 0 .49-.14.63-.07.14-.56.98-.84 1.4.84.91 1.27 2.03 1.27 3.22s-.42 2.66-1.83 3.78c.56.14.98.49 1.34.98l-.35 1.54Z"/><path fill="#fff" d="M180.68 28.29h-.84v-2.45h.84c1.12 0 1.55.35 1.55 1.19-.07.84-.63 1.26-1.55 1.26Zm-.07-4.83c.7 0 1.12.14 1.12.84 0 .77-.63.98-1.34.98h-.63v-1.82h.84Zm1.34 2.03c.63-.07 1.2-.56 1.2-1.26 0-.63-.28-1.33-2.18-1.33h-3.16v.07c.07 0 .28.14.35.21.21.21.28.49.28.91v4.76h2.6c1.48 0 2.46-.56 2.46-1.82.07-1.05-.7-1.47-1.55-1.54Zm-8.93-2.03h.91c.77 0 1.2.21 1.2 1.05 0 .7-.49 1.19-1.34 1.19h-.7v-2.24h-.07Zm2.46 5.39h1.69l-2.18-2.8c.84-.21 1.55-.7 1.55-1.61 0-1.05-.63-1.54-2.18-1.54h-3.38v.07c.14.07.28.14.35.21.21.21.28.56.28 1.05v4.62h1.41v-2.66h.49l1.97 2.66Zm13.65-5.11c.35.21.49.49.49.49h.07l.28-.98s-.56-.35-1.83-.35c-1.97 0-3.38.98-3.38 3.08 0 2.38 1.76 3.01 3.24 3.01s1.97-.42 1.97-.42v-.7s-.49.49-1.55.49c-.91 0-2.18-.42-2.18-2.38 0-1.82.77-2.38 1.83-2.38.56-.14.84 0 1.05.14Z"/></g><path fill="#d3d3d3" d="M101.45 29.21H94.7l4.22-26.33h6.75l-4.22 26.33Zm24.46-25.69a16.54 16.54 0 0 0-6.05-1.12c-6.66 0-11.36 3.59-11.39 8.71-.06 3.78 3.36 5.88 5.91 7.14 2.61 1.29 3.5 2.13 3.5 3.28-.03 1.76-2.11 2.58-4.05 2.58-2.69 0-4.14-.42-6.33-1.4l-.89-.42-.94 5.91c1.58.73 4.5 1.37 7.53 1.4 7.08 0 11.69-3.53 11.74-8.99.03-3-1.78-5.29-5.66-7.17-2.36-1.2-3.81-2.02-3.81-3.25.03-1.12 1.22-2.27 3.89-2.27 2.19-.06 3.81.48 5.03 1.01l.61.28.92-5.69Zm8.97 16.36 2.69-7.37.89-2.52.47 2.27 1.55 7.62h-5.61Zm8.33-17h-5.22c-1.61 0-2.83.48-3.53 2.18l-10.02 24.15h7.08l1.42-3.95h8.66l.81 3.95h6.25l-5.44-26.33Zm-54.14 0-6.61 17.95-.72-3.64L79.38 5.1c-.39-1.68-1.58-2.16-3.05-2.21H65.47l-.11.53c2.65.68 5.02 1.67 7.09 2.89l6.01 22.88h7.14l10.61-26.3h-7.14Z"/><g clip-path="url(#b)"><path fill="#9e9e9e" d="M34.92 3.41H20.04v25.04h14.88V3.41Z"/><path fill="#d3d3d3" d="M21.03 15.93c0-5.09 2.55-9.6 6.47-12.52A17.67 17.67 0 0 0 17.01 0C7.61 0 0 7.12 0 15.93s7.61 15.93 17.01 15.93a17.6 17.6 0 0 0 10.49-3.41 15.56 15.56 0 0 1-6.47-12.52Z"/><path fill="#b3b3b3" d="M55 15.93c0 8.8-7.61 15.93-17.01 15.93a17.6 17.6 0 0 1-10.49-3.41c3.97-2.92 6.47-7.43 6.47-12.52s-2.55-9.6-6.47-12.52A17.67 17.67 0 0 1 37.99 0C47.4 0 55 7.17 55 15.93Z"/></g></svg>