<svg xmlns="http://www.w3.org/2000/svg" width="133" height="26" viewBox="0 0 133 26"><path fill="#4ab1e5" d="M22.81 26a7.1 7.1 0 0 1-7.12-7.05V7.05c0-3.89 3.19-7.05 7.12-7.05s7.12 3.16 7.12 7.05v11.9A7.1 7.1 0 0 1 22.81 26m0-23.15a4.23 4.23 0 0 0-4.24 4.2v11.9c0 2.32 1.9 4.2 4.24 4.2s4.24-1.89 4.24-4.2V7.05c0-2.32-1.9-4.2-4.24-4.2"/><path fill="#6691cb" d="M6.94 13.64c-3.79 0-6.88-3.06-6.88-6.82S3.15 0 6.94 0s6.88 3.06 6.88 6.82-3.09 6.82-6.88 6.82m0-10.79a4 4 0 0 0-4.01 3.97c0 2.19 1.8 3.97 4.01 3.97s4.01-1.78 4.01-3.97-1.8-3.97-4.01-3.97"/><path fill="#4ab1e5" d="M43.57 25.86h-6.56a5.3 5.3 0 0 1-5.34-5.28v-.42a5.3 5.3 0 0 1 5.34-5.28h6.56a5.3 5.3 0 0 1 5.34 5.28v.42a5.3 5.3 0 0 1-5.34 5.28m-6.56-8.15a2.45 2.45 0 0 0-2.46 2.44v.42a2.45 2.45 0 0 0 2.46 2.44h6.56a2.45 2.45 0 0 0 2.46-2.44v-.42a2.45 2.45 0 0 0-2.46-2.44z"/><path fill="#767676" d="M41.52 13.25h-2.25a7.46 7.46 0 0 1-7.49-7.42V.67h2.87v5.17a4.6 4.6 0 0 0 4.62 4.57h2.25a4.6 4.6 0 0 0 4.62-4.57h2.87a7.46 7.46 0 0 1-7.49 7.42Zm-27.93 11.9h-2.87v-3.87a3.1 3.1 0 0 0-3.08-3.07H5.96a3.1 3.1 0 0 0-3.08 3.07H0a5.94 5.94 0 0 1 5.96-5.91h1.68a5.95 5.95 0 0 1 5.96 5.91z"/><path fill="#353535" d="M58.8 0c2.36 0 3.21 1.07 3.21 2.36q.01.11-.19.13h-.75c-.13 0-.18-.04-.19-.21-.06-.65-.6-1.32-2.08-1.32-1.31 0-2.1.62-2.1 1.42 0 .45.31.84 1.2.9l2.08.15c1.74.14 2.34.98 2.34 1.96s-.86 2.4-3.24 2.4-3.5-1.08-3.5-2.4v-.13q0-.14.15-.14h.79q.2 0 .18.18c0 .93.66 1.53 2.38 1.53 1.57 0 2.13-.65 2.13-1.44 0-.45-.27-.93-1.29-1l-2.12-.15c-1.53-.13-2.22-.8-2.22-1.86 0-1.15 1-2.38 3.22-2.38m27.69.12c1.79 0 3.09.88 3.09 2.47 0 1.22-.79 1.98-1.95 2.27v.03s.27.24.48.54l1.45 1.98q.1.14.09.16 0 .08-.1.08h-1.04a.3.3 0 0 1-.18-.09l-1.88-2.57h-2.24V7.5c0 .08-.08.15-.15.15h-.81c-.08 0-.15-.08-.15-.15V.27c0-.08.08-.15.15-.15zm-4.67 7.29s.06.11.06.15q0 .08-.12.09h-.82c-.15 0-.18 0-.27-.16l-.71-1.39h-4.22l-.7 1.39c-.09.16-.11.16-.27.16h-.82q-.12-.01-.11-.09l.06-.15L77.64.12h.46l3.73 7.29ZM97.52.12c.08 0 .18.1.18.18v.6c0 .08-.1.17-.18.18h-3v6.43c0 .08-.08.15-.15.15h-.81c-.08 0-.15-.08-.15-.15V1.08h-3c-.08 0-.18-.1-.18-.18V.3c0-.08.1-.18.18-.18zm-32.81 0q.14 0 .24.13l3.37 4.74h.03L71.72.25a.3.3 0 0 1 .24-.13h.52c.08 0 .15.08.15.15V7.5c0 .08-.08.15-.15.15h-.81c-.08 0-.15-.08-.15-.15V2.07h-.04s-.17.43-.44.82l-2.7 3.81-2.7-3.81c-.27-.38-.44-.8-.44-.82h-.04V7.5c0 .08-.08.15-.15.15h-.81c-.08 0-.15-.08-.15-.15V.27c0-.08.08-.15.15-.15zm13.11 1.63s-.38 1.01-.57 1.38l-1.03 2.01h3.26l-1.01-2.01c-.19-.37-.57-1.37-.57-1.38zm6.39 2.35h2.25c1.17 0 2-.53 2-1.51s-.82-1.52-2-1.52h-2.25zm45.27 5.85c2.36 0 3.21 1.07 3.21 2.36 0 .06-.05.13-.19.13h-.75c-.13 0-.18-.04-.19-.21-.06-.65-.6-1.32-2.08-1.32-1.31 0-2.1.62-2.1 1.42 0 .45.31.84 1.2.9l2.08.15c1.74.14 2.34.98 2.34 1.96s-.86 2.4-3.24 2.4-3.5-1.08-3.5-2.4v-.13q0-.14.15-.14h.78q.2 0 .18.18c0 .93.66 1.53 2.38 1.53 1.57 0 2.13-.65 2.13-1.44 0-.45-.27-.93-1.29-1l-2.12-.15c-1.53-.13-2.22-.8-2.22-1.86 0-1.14 1-2.37 3.22-2.37Zm-28.84 0c2.25 0 4.11 1.46 4.11 3.89s-1.84 3.89-4.11 3.89-4.11-1.46-4.11-3.89 1.85-3.89 4.11-3.89m9.48 0c2.26 0 4.11 1.46 4.11 3.89s-1.84 3.89-4.11 3.89-4.11-1.46-4.11-3.89 1.85-3.89 4.11-3.89m-50.37.13c1.7 0 2.59.85 2.59 2.02q-.02.97-.7 1.47v.03c.63.36 1.01.98 1.01 1.79 0 1.44-1.05 2.22-2.84 2.22h-3.62c-.08 0-.15-.08-.15-.15v-7.23c0-.08.08-.15.15-.15zm32.42 0c1.79 0 3.09.88 3.09 2.47 0 1.22-.78 1.98-1.95 2.27v.03s.27.24.48.54l1.45 1.98q.1.14.09.16 0 .08-.1.08h-1.04a.3.3 0 0 1-.18-.09l-1.87-2.57H89.9v2.51c0 .08-.08.15-.15.15h-.81c-.08 0-.15-.08-.15-.15v-7.23c0-.08.08-.15.15-.15zm-21.04 7.29s.06.11.06.15q0 .07-.11.09h-.82c-.15 0-.18 0-.27-.16l-.71-1.39h-4.22l-.7 1.39c-.09.16-.11.16-.27.16h-.82q-.12-.02-.11-.09t.06-.15l3.73-7.29h.46l3.73 7.29Zm6.47-7.29c.08 0 .18.1.18.18v.6c0 .08-.1.18-.18.18h-3v6.43c0 .08-.08.15-.15.15h-.81c-.08 0-.15-.08-.15-.15v-6.43h-3c-.08 0-.18-.1-.18-.18v-.6c0-.08.1-.18.18-.18zm2.48 0c.08 0 .15.08.15.15v3.36h5.25v-3.36c0-.08.08-.15.15-.15h.81c.08 0 .15.08.15.15v7.23c0 .08-.08.15-.15.15h-.81c-.08 0-.15-.08-.15-.15v-2.91h-5.25v2.91c0 .08-.08.15-.15.15h-.81c-.08 0-.15-.08-.15-.15v-7.23c0-.08.08-.15.15-.15zm36.52 0q.14 0 .24.13l3.37 4.74h.03l3.37-4.74a.3.3 0 0 1 .24-.13h.52c.08 0 .15.08.15.15v7.23c0 .08-.08.15-.15.15h-.81c-.08 0-.15-.08-.15-.15v-5.43h-.04s-.17.43-.44.82l-2.7 3.82-2.7-3.82c-.28-.39-.44-.82-.44-.82h-.04v5.43c0 .08-.08.15-.15.15h-.81c-.08 0-.15-.08-.15-.15v-7.23c0-.08.08-.15.15-.15zm-15.97.83c-1.67 0-2.99 1.08-2.99 2.94s1.36 2.94 2.99 2.94 2.99-1.1 2.99-2.94-1.32-2.94-2.99-2.94m9.48 0c-1.67 0-2.99 1.08-2.99 2.94s1.36 2.94 2.99 2.94 2.99-1.1 2.99-2.94-1.32-2.94-2.99-2.94m-52.96 5.75h2.64c1.22 0 1.75-.43 1.75-1.27s-.55-1.26-1.75-1.26h-2.64zm9.98-4.95s-.38 1-.57 1.38l-1.03 2.01h3.26l-1.01-2.01c-.19-.38-.57-1.38-.57-1.38zm22.76 2.35h2.26c1.17 0 2-.53 2-1.5 0-.98-.82-1.52-2-1.52h-2.26zm-32.74-.88h2.83c1.03 0 1.24-.46 1.24-1.08s-.37-1.07-1.5-1.07h-2.57z"/><path fill="#4ab1e5" d="M77.61 20.45c1.61 0 2.93 1.04 2.93 2.77 0 1.74-1.31 2.77-2.93 2.77s-2.93-1.04-2.93-2.77c0-1.74 1.32-2.77 2.93-2.77m25.83 0c1.61 0 2.93 1.04 2.93 2.77s-1.31 2.77-2.93 2.77-2.93-1.04-2.93-2.77 1.32-2.77 2.93-2.77m-37.12.09q.11.02.13.13v.43c0 .05-.07.13-.13.13h-3.34v1.57h3.07q.11.02.13.13v.43c0 .05-.07.13-.13.13h-3.07v1.75h3.43q.11.02.13.13v.43c0 .05-.07.13-.13.13h-4.12q-.1-.01-.11-.11v-5.15q.02-.1.11-.11h4.03Zm-7.79 0c1.27 0 2.2.63 2.2 1.76 0 .87-.56 1.41-1.39 1.62v.02s.19.17.34.39l1.03 1.41q.07.1.06.12 0 .06-.07.06h-.74s-.1-.03-.13-.06l-1.34-1.83h-1.6v1.79q-.02.1-.11.11h-.58q-.1-.02-.11-.11v-5.15q.02-.1.11-.11h2.31Zm23.2 0c.11 0 .13 0 .19.12l1.57 3.1c.14.27.37.85.37.85h.05s.24-.58.37-.85l1.57-3.1c.06-.12.08-.12.19-.12h.63q.07.01.07.05-.01.05-.05.12l-2.65 5.2h-.32l-2.65-5.2s-.05-.09-.05-.12q0-.05.07-.05h.63Zm10.39 5.2s.05.08.05.11-.03.06-.08.06h-.59c-.11 0-.13 0-.19-.12l-.51-.99h-3.01l-.5.99c-.06.12-.08.12-.19.12h-.59q-.08-.02-.08-.06.01-.05.05-.11l2.65-5.2h.32l2.65 5.2Zm4.84-5.2q.11.02.13.13v.43c0 .05-.07.13-.13.13h-2.14v4.58q-.02.1-.11.11h-.58q-.1-.02-.11-.11v-4.58h-2.14q-.11-.02-.13-.13v-.43c0-.05.07-.13.13-.13zm1.99 0q.1.01.11.11v5.15q-.01.1-.11.11h-.58q-.1-.02-.11-.11v-5.15q.01-.1.11-.11zm-26.96 3.59c.23.23.4.49.41.5h.04v-3.99q.02-.1.11-.11h.58q.1.01.11.11v5.15q-.02.1-.11.11h-.42l-3.63-3.69a2 2 0 0 1-.34-.43h-.03v4.01q-.01.1-.11.11h-.58a.1.1 0 0 1-.11-.11v-5.15q.02-.1.11-.11h.43zm39.92 0c.23.23.4.49.41.5h.04v-3.99q.01-.1.11-.11h.58q.1.01.11.11v5.15q-.02.1-.11.11h-.42L109 22.21a2 2 0 0 1-.34-.43h-.03v4.01q-.01.1-.11.11h-.58q-.1-.01-.11-.11v-5.15q.01-.1.11-.11h.43zm-34.3-3c-1.19 0-2.13.77-2.13 2.09s.97 2.09 2.13 2.09 2.13-.79 2.13-2.09c0-1.31-.94-2.09-2.13-2.09m25.83 0c-1.19 0-2.13.77-2.13 2.09s.97 2.09 2.13 2.09 2.13-.79 2.13-2.09-.94-2.09-2.13-2.09m-14.17.57s-.27.72-.41.98l-.73 1.43h2.32l-.72-1.43-.41-.98h-.06ZM56.9 23.38h1.61c.83 0 1.43-.38 1.43-1.08s-.59-1.08-1.43-1.08H56.9z"/></svg>