<svg xmlns="http://www.w3.org/2000/svg" width="302" height="33" viewBox="0 0 302 33"><path fill="#4ab1e5" d="M28.39 33a8.9 8.9 0 0 1-8.86-8.95V8.95c0-4.93 3.98-8.95 8.86-8.95s8.86 4.01 8.86 8.95v15.1A8.92 8.92 0 0 1 28.39 33Zm0-29.38a5.31 5.31 0 0 0-5.28 5.33v15.1c0 2.94 2.37 5.33 5.28 5.33s5.28-2.39 5.28-5.33V8.95a5.31 5.31 0 0 0-5.28-5.33Z"/><path fill="#6691cb" d="M8.64 17.31c-4.73 0-8.57-3.88-8.57-8.65S3.91 0 8.64 0s8.57 3.88 8.57 8.65-3.84 8.65-8.57 8.65Zm0-13.7c-2.75 0-4.99 2.26-4.99 5.04s2.24 5.04 4.99 5.04 4.99-2.26 4.99-5.04-2.24-5.04-4.99-5.04Z"/><path fill="#4ab1e5" d="M54.24 32.82h-8.17a6.68 6.68 0 0 1-6.64-6.71v-.54c0-3.7 2.98-6.71 6.64-6.71h8.17a6.68 6.68 0 0 1 6.64 6.71v.54c0 3.7-2.98 6.71-6.64 6.71Zm-8.17-10.34a3.08 3.08 0 0 0-3.06 3.09v.54a3.08 3.08 0 0 0 3.06 3.09h8.17a3.08 3.08 0 0 0 3.06-3.09v-.54a3.08 3.08 0 0 0-3.06-3.09h-8.17Z"/><path fill="#94979b" d="M51.69 16.82h-2.8a9.37 9.37 0 0 1-9.32-9.41V.85h3.58v6.56c0 3.2 2.58 5.8 5.75 5.8h2.8c3.17 0 5.75-2.6 5.75-5.8h3.58a9.37 9.37 0 0 1-9.32 9.41Zm-34.78 15.1h-3.58v-4.91a3.86 3.86 0 0 0-3.84-3.89H7.4a3.87 3.87 0 0 0-3.84 3.89H0c0-4.14 3.33-7.5 7.42-7.5h2.09a7.47 7.47 0 0 1 7.42 7.5v4.91Z"/><path d="M75.6 8.69c.23 0 .29.1.29.29 0 1.53 1.07 2.53 3.86 2.53 2.54 0 3.45-1.08 3.45-2.38 0-.75-.43-1.53-2.09-1.66l-3.42-.25c-2.48-.21-3.59-1.33-3.59-3.06 0-1.88 1.62-3.91 5.21-3.91 3.82 0 5.19 1.76 5.19 3.89 0 .1-.08.21-.31.21h-1.21c-.21 0-.29-.06-.31-.35-.1-1.08-.96-2.17-3.37-2.17-2.11 0-3.4 1.02-3.4 2.34 0 .75.49 1.39 1.95 1.49l3.37.25c2.81.23 3.79 1.62 3.79 3.23s-1.4 3.96-5.25 3.96-5.66-1.78-5.66-3.96v-.21c0-.15.06-.23.24-.23h1.27ZM101.44.45c.13 0 .25.13.25.25v11.93c0 .13-.12.25-.25.25h-1.31c-.12 0-.25-.13-.25-.25V3.66h-.06s-.26.71-.72 1.35l-4.37 6.29-4.37-6.29c-.45-.64-.72-1.35-.72-1.35h-.06v8.97c0 .13-.12.25-.24.25h-1.31c-.12 0-.24-.13-.24-.25V.69c0-.13.12-.25.24-.25h.84c.14 0 .29.06.39.21l5.46 7.83h.04l5.46-7.83c.1-.15.25-.21.39-.21h.84Zm12.13 9.85h-6.83l-1.13 2.3c-.14.27-.18.27-.43.27h-1.33c-.13 0-.18-.08-.18-.15s.06-.16.1-.25L109.79.45h.74l6.03 12.03c.04.08.1.18.1.25s-.06.15-.19.15h-1.33c-.25 0-.29 0-.43-.27l-1.15-2.3Zm-6.05-1.57h5.27l-1.64-3.31c-.31-.62-.92-2.28-.92-2.28h-.12s-.61 1.66-.92 2.28l-1.66 3.31ZM118.63.7c0-.13.12-.25.25-.25h5.25c2.89 0 5.01 1.45 5.01 4.08 0 2.01-1.27 3.27-3.16 3.75v.04s.43.39.78.89l2.34 3.27c.12.16.14.23.14.27 0 .08-.04.13-.16.13h-1.68a.38.38 0 0 1-.29-.15l-3.04-4.25h-3.63v4.14c0 .13-.12.25-.25.25h-1.31c-.13 0-.25-.13-.25-.25V.7Zm1.81 1.32v4.99h3.65c1.89 0 3.24-.87 3.24-2.48s-1.33-2.51-3.24-2.51h-3.65Zm9.72-.29V.74c0-.13.16-.29.29-.29h11.53c.12 0 .29.16.29.29v.99c0 .13-.16.29-.29.29h-4.86v10.6c0 .13-.13.25-.25.25h-1.31c-.12 0-.24-.13-.24-.25V2.02h-4.86c-.12 0-.29-.16-.29-.29ZM75.07 32.79c-.12 0-.24-.13-.24-.25V20.61c0-.13.12-.25.24-.25h5.76c2.75 0 4.19 1.41 4.19 3.34 0 1.08-.41 1.86-1.13 2.43v.04a3.26 3.26 0 0 1 1.64 2.96c0 2.38-1.7 3.67-4.59 3.67h-5.87Zm1.56-10.85v3.54h4.57c1.66 0 2.01-.77 2.01-1.78s-.59-1.76-2.42-1.76h-4.16Zm4.27 9.28c1.97 0 2.83-.71 2.83-2.09s-.88-2.07-2.83-2.07h-4.27v4.16h4.27Zm15.36-1h-6.83l-1.13 2.3c-.14.27-.18.27-.43.27h-1.33c-.12 0-.18-.08-.18-.15s.06-.16.1-.25l6.03-12.03h.74l6.03 12.03c.04.08.1.18.1.25s-.06.15-.18.15h-1.33c-.24 0-.29 0-.43-.27l-1.15-2.3Zm-6.05-1.57h5.27l-1.64-3.31c-.31-.62-.93-2.28-.93-2.28h-.12s-.61 1.66-.92 2.28l-1.66 3.31Zm7.71-7v-.99c0-.13.16-.29.29-.29h11.53c.12 0 .29.16.29.29v.99c0 .13-.16.29-.29.29h-4.86v10.6c0 .13-.12.25-.25.25h-1.31c-.13 0-.25-.13-.25-.25v-10.6h-4.86c-.12 0-.29-.16-.29-.29Zm26.38 10.89c0 .13-.12.25-.25.25h-1.31c-.13 0-.25-.13-.25-.25v-4.81H114v4.81c0 .13-.12.25-.24.25h-1.31c-.12 0-.25-.13-.25-.25V20.61c0-.13.13-.25.25-.25h1.31c.12 0 .24.13.24.25v5.55h8.49v-5.55c0-.13.12-.25.25-.25h1.31c.13 0 .25.13.25.25v11.93Zm3.52-11.93c0-.13.12-.25.24-.25h5.25c2.89 0 5.01 1.45 5.01 4.08 0 2.01-1.27 3.27-3.16 3.75v.04s.43.39.78.89l2.34 3.27c.13.16.14.23.14.27 0 .08-.04.13-.16.13h-1.68a.38.38 0 0 1-.29-.15l-3.04-4.25h-3.63v4.14c0 .13-.12.25-.24.25h-1.31c-.12 0-.24-.13-.24-.25V20.6Zm1.8 1.32v4.99h3.65c1.89 0 3.24-.87 3.24-2.48s-1.33-2.51-3.24-2.51h-3.65Zm24.05 4.65c0 4.02-2.97 6.42-6.65 6.42s-6.65-2.4-6.65-6.42 3-6.42 6.65-6.42 6.65 2.4 6.65 6.42Zm-11.49 0c0 3.02 2.2 4.85 4.84 4.85s4.84-1.82 4.84-4.85-2.13-4.85-4.84-4.85-4.84 1.78-4.84 4.85Zm26.83 0c0 4.02-2.97 6.42-6.65 6.42s-6.65-2.4-6.65-6.42 3-6.42 6.65-6.42 6.65 2.4 6.65 6.42Zm-11.49 0c0 3.02 2.2 4.85 4.84 4.85s4.84-1.82 4.84-4.85-2.13-4.85-4.84-4.85-4.84 1.78-4.84 4.85Zm27.94-6.22c.12 0 .24.13.24.25v11.93c0 .13-.12.25-.24.25h-1.31c-.12 0-.24-.13-.24-.25v-8.97h-.06s-.27.71-.72 1.35l-4.37 6.29-4.37-6.29c-.45-.64-.72-1.35-.72-1.35h-.06v8.97c0 .13-.12.25-.25.25h-1.31c-.12 0-.25-.13-.25-.25V20.61c0-.13.12-.25.25-.25h.84c.14 0 .29.06.39.21l5.46 7.83h.04l5.46-7.83c.1-.15.24-.21.39-.21h.84Zm4.55 8.25c.23 0 .29.1.29.29 0 1.53 1.07 2.53 3.86 2.53 2.54 0 3.45-1.08 3.45-2.38 0-.75-.43-1.53-2.09-1.66l-3.42-.25c-2.48-.21-3.59-1.33-3.59-3.06 0-1.88 1.62-3.91 5.21-3.91 3.82 0 5.19 1.76 5.19 3.89 0 .1-.08.21-.31.21h-1.21c-.21 0-.29-.06-.31-.35-.1-1.08-.96-2.17-3.36-2.17-2.11 0-3.4 1.02-3.4 2.34 0 .75.49 1.39 1.95 1.49l3.37.25c2.81.23 3.79 1.62 3.79 3.23s-1.4 3.96-5.25 3.96-5.66-1.78-5.66-3.96v-.21c0-.15.06-.23.24-.23h1.27Z"/><path fill="#4ab1e5" d="M209.65 24.17a.2.2 0 0 1 .18-.18h3.74c2.06 0 3.57 1.03 3.57 2.91 0 1.43-.91 2.33-2.25 2.67v.03s.31.28.56.64l1.67 2.33c.09.12.1.16.1.19 0 .06-.03.09-.12.09h-1.2a.3.3 0 0 1-.21-.1l-2.16-3.03h-2.59v2.95a.2.2 0 0 1-.18.18h-.94c-.09 0-.17-.09-.17-.18v-8.5Zm1.28.95v3.56h2.6c1.34 0 2.31-.62 2.31-1.77s-.95-1.79-2.31-1.79h-2.6Zm9.85 3.72v2.89h5.55c.09 0 .21.12.21.21v.71c0 .09-.12.21-.21.21h-6.67c-.09 0-.17-.09-.17-.18v-8.5c0-.09.09-.18.17-.18h6.52c.09 0 .21.12.21.21v.71c0 .09-.12.21-.21.21h-5.41v2.6h4.97c.09 0 .21.12.21.21v.71c0 .09-.12.21-.21.21h-4.97Zm9.85-2.07c-.33-.35-.56-.71-.56-.71h-.04v6.61a.2.2 0 0 1-.18.18h-.94c-.09 0-.17-.09-.17-.18v-8.5c0-.09.09-.18.17-.18h.7l5.75 5.93c.38.38.66.83.66.83h.06v-6.59a.2.2 0 0 1 .18-.18h.94a.2.2 0 0 1 .18.18v8.5a.2.2 0 0 1-.18.18h-.69l-5.88-6.08Zm18.57 1.65c0 2.86-2.12 4.58-4.74 4.58s-4.74-1.71-4.74-4.58 2.13-4.58 4.74-4.58 4.74 1.71 4.74 4.58Zm-8.19 0c0 2.15 1.57 3.45 3.45 3.45s3.45-1.3 3.45-3.45-1.52-3.45-3.45-3.45-3.45 1.27-3.45 3.45Zm12.98.89c.22.44.6 1.4.6 1.4h.09s.38-.96.6-1.4l2.54-5.12c.1-.19.13-.19.31-.19h1.02c.09 0 .12.04.12.09s-.04.13-.07.19l-4.3 8.58h-.52l-4.3-8.58c-.03-.06-.07-.15-.07-.19s.03-.09.12-.09h1.02c.18 0 .21 0 .31.19l2.54 5.12Zm11.83 1.71h-4.87l-.8 1.64c-.1.19-.13.19-.31.19h-.95c-.09 0-.13-.06-.13-.1s.04-.12.07-.18l4.3-8.57h.52l4.3 8.57c.03.06.07.13.07.18s-.04.1-.13.1h-.95c-.18 0-.21 0-.31-.19l-.82-1.64Zm-4.31-1.12h3.76l-1.17-2.36c-.22-.44-.66-1.62-.66-1.62h-.09s-.44 1.18-.66 1.62l-1.19 2.36Zm5.86-4.99v-.71c0-.09.12-.21.21-.21h8.22c.09 0 .21.12.21.21v.71c0 .09-.12.21-.21.21h-3.46v7.56a.2.2 0 0 1-.18.18h-.94a.2.2 0 0 1-.18-.18v-7.56h-3.46c-.09 0-.21-.12-.21-.21Zm11.82 7.76a.2.2 0 0 1-.18.18h-.94a.2.2 0 0 1-.18-.18v-8.5a.2.2 0 0 1 .18-.18h.94a.2.2 0 0 1 .18.18v8.5Zm11.83-4.25c0 2.86-2.12 4.58-4.74 4.58s-4.74-1.71-4.74-4.58 2.13-4.58 4.74-4.58 4.74 1.71 4.74 4.58Zm-8.19 0c0 2.15 1.57 3.45 3.45 3.45s3.45-1.3 3.45-3.45-1.52-3.45-3.45-3.45-3.45 1.27-3.45 3.45Zm12.43-1.65c-.33-.35-.56-.71-.56-.71h-.04v6.61c0 .09-.09.18-.17.18h-.94a.2.2 0 0 1-.18-.18v-8.5a.2.2 0 0 1 .18-.18h.7l5.74 5.93c.38.38.66.83.66.83h.06v-6.59a.2.2 0 0 1 .18-.18h.94a.2.2 0 0 1 .18.18v8.5a.2.2 0 0 1-.18.18h-.69l-5.88-6.08Z"/></svg>