<svg xmlns="http://www.w3.org/2000/svg" xmlns:xlink="http://www.w3.org/1999/xlink" style="display:none"><symbol id="arrow-left" viewBox="0 0 44 44"><path d="M44 19.9V24H7l14 14c.6.6.7 1.5.3 2.3-.4.8-1.3 1.2-2.1 1.1-.6-.1-1.1-.4-1.5-.8L.5 23.4c-.4-.4-.6-1-.5-1.6.1-.6.4-1.1.8-1.5C5.1 16 18.1 3.1 18.3 2.9c.9-.6 2-.4 2.7.4.7.8.6 1.9-.1 2.7L7 19.9h37z"/></symbol><symbol id="arrow-right" viewBox="0 0 44 44"><path d="M37 19.9L23.1 6c-.7-.7-.7-1.9-.1-2.7.7-.8 1.9-1 2.7-.4.2.2 13.2 13.1 17.4 17.3.4.4.8.9.8 1.5.1.6-.1 1.2-.5 1.6L26.2 40.5c-.4.4-.9.7-1.5.8-.9.1-1.7-.3-2.1-1.1-.4-.8-.2-1.7.3-2.3l14-14H0v-4.1c0 .1 37 .1 37 .1z"/></symbol><symbol id="check-circle"><path fill-rule="evenodd" d="M10.02 3.22a9 9 0 015.65.56 1 1 0 10.81-1.83A10.99 10.99 0 1023.01 12v-.92c0-.55-.45-1-1-1s-1 .45-1 1V12a8.99 8.99 0 01-16.55 4.89 8.95 8.95 0 01.71-10.75 9 9 0 014.86-2.93zm12.69 1.49A1 1 0 1021.3 3.3l-9.29 9.3-2.29-2.29a1 1 0 10-1.41 1.41l3 3c.19.19.44.29.71.29.27 0 .52-.11.71-.29l10-10.01z"/></symbol><symbol id="dragger"><path d="M9.34 4.81a1.16 1.16 0 00-1.59 0L1 11.24c-.44.42-.44 1.1 0 1.52l6.75 6.43c.44.42 1.15.42 1.59 0 .44-.42.44-1.1 0-1.52L3.39 12l5.95-5.67c.44-.42.44-1.1 0-1.52zM35 11.24l-6.75-6.43a1.16 1.16 0 00-1.59 0c-.44.42-.44 1.1 0 1.52L32.61 12l-5.95 5.67c-.44.42-.44 1.1 0 1.52.44.42 1.15.42 1.59 0L35 12.76c.44-.42.44-1.1 0-1.52z" fill-rule="evenodd"/></symbol><symbol id="plus"><path d="M20 9.47h-9.47V0H9.48v9.47H0v1.05h9.47v9.47h1.05v-9.47h9.47V9.47z"/></symbol></svg>