<svg xmlns="http://www.w3.org/2000/svg" viewBox="0 0 250 56"><path fill="#c2c2c2" fill-rule="evenodd" d="M91.8 0c5.6 0 15.1 1.3 20.2 5.2 5.2 4.3 10.3 11.2 10.8 22.8 0 11.6-5.6 19-10.8 22.8-5.6 3.9-14.6 5.2-20.2 5.2s-15.1-1.3-20.2-5.2C66.4 46.5 61.3 39.6 61.3 28S66.5 9 71.6 5.2C77.2 1.3 86.2 0 91.8 0Zm.4 49.5c4.3 0 9-2.2 11.6-5.6 2.6-3.4 3.9-10.8 3.9-15.9s-1.3-12.5-3.9-15.9c-2.6-3.9-6.9-5.6-11.6-5.6s-9 2.2-11.6 5.6C78 15.5 76.7 22.4 76.7 28s1.3 12.5 3.9 15.9c2.6 3.9 7.3 5.6 11.6 5.6Zm-46.1-2.1v6.9H11.2v-6.5H19c1.7 0 3.4-.9 3.4-3V9h-4.3C10.8 9 7.3 14.6 7.3 21.5v.4H0V2.2h57.3v20.2H50v-.9C50 14.6 46.6 9 39.2 9h-3.9v35.3c0 2.2 1.7 3 3.4 3H46Zm127.1 6.4v-6.5h-7.3c-1.7 0-3.4-.9-3.4-3V9h3.9c7.3 0 10.8 5.6 10.8 12.5v.9h7.3V2.2h-56.9V22h7.3v-.4c0-6.9 3.4-12.5 10.8-12.5h3.9v35.8c0 2.2-1.7 3-3.4 3h-7.3v6.5h34.5V54ZM219.3 0c5.6 0 15.1 1.3 20.2 5.2 5.2 4.3 10.3 11.2 10.3 22.8s-5.2 19-10.3 22.8c-5.6 3.9-14.6 5.2-20.2 5.2s-15.1-1.3-20.2-5.2c-5.2-4.3-10.3-11.2-10.3-22.8S194 9 199.1 5.2c5.6-3.9 14.6-5.2 20.2-5.2Zm0 49.1c4.7 0 9-1.7 11.6-5.2 3-3.4 4.3-10.8 3.9-16.4 0-5.6-1.3-12.5-3.9-15.9-2.6-3.9-7.3-5.6-11.6-5.6s-9 2.2-11.6 5.6c-2.6 3.4-3.9 10.3-3.9 15.9s1.3 12.5 3.9 15.9c2.6 3.9 6.9 5.6 11.6 5.6Z"/></svg>