<svg xmlns="http://www.w3.org/2000/svg" xmlns:xlink="http://www.w3.org/1999/xlink" style="display:none"><symbol id="arrow-left" viewBox="0 0 44 44"><path d="M44 19.9V24H7l14 14c.6.6.7 1.5.3 2.3-.4.8-1.3 1.2-2.1 1.1-.6-.1-1.1-.4-1.5-.8L.5 23.4c-.4-.4-.6-1-.5-1.6.1-.6.4-1.1.8-1.5C5.1 16 18.1 3.1 18.3 2.9c.9-.6 2-.4 2.7.4.7.8.6 1.9-.1 2.7L7 19.9h37z"/></symbol><symbol id="arrow-right" viewBox="0 0 44 44"><path d="M37 19.9L23.1 6c-.7-.7-.7-1.9-.1-2.7.7-.8 1.9-1 2.7-.4.2.2 13.2 13.1 17.4 17.3.4.4.8.9.8 1.5.1.6-.1 1.2-.5 1.6L26.2 40.5c-.4.4-.9.7-1.5.8-.9.1-1.7-.3-2.1-1.1-.4-.8-.2-1.7.3-2.3l14-14H0v-4.1c0 .1 37 .1 37 .1z"/></symbol><symbol id="check-circle"><path fill-rule="evenodd" d="M10.02 3.22a9 9 0 015.65.56 1 1 0 10.81-1.83A10.99 10.99 0 1023.01 12v-.92c0-.55-.45-1-1-1s-1 .45-1 1V12a8.99 8.99 0 01-16.55 4.89 8.95 8.95 0 01.71-10.75 9 9 0 014.86-2.93zm12.69 1.49A1 1 0 1021.3 3.3l-9.29 9.3-2.29-2.29a1 1 0 10-1.41 1.41l3 3c.19.19.44.29.71.29.27 0 .52-.11.71-.29l10-10.01z"/></symbol><symbol id="dragger"><path d="M9.34 4.81a1.16 1.16 0 00-1.59 0L1 11.24c-.44.42-.44 1.1 0 1.52l6.75 6.43c.44.42 1.15.42 1.59 0 .44-.42.44-1.1 0-1.52L3.39 12l5.95-5.67c.44-.42.44-1.1 0-1.52zM35 11.24l-6.75-6.43a1.16 1.16 0 00-1.59 0c-.44.42-.44 1.1 0 1.52L32.61 12l-5.95 5.67c-.44.42-.44 1.1 0 1.52.44.42 1.15.42 1.59 0L35 12.76c.44-.42.44-1.1 0-1.52z" fill-rule="evenodd"/></symbol><symbol id="fullscreen"><path d="M4 12.04c0 .63.5 1.15 1.14 1.16l.19-.01c.58-.11.99-.62.98-1.21V7.9l6.03 6.03c.41.47 1.13.52 1.61.11a1 1 0 00.4-.86q-.01-.47-.34-.8L7.92 6.29H12c.59.01 1.09-.4 1.21-.98.1-.63-.34-1.21-.96-1.31l-.19-.01H5.17c-.63 0-1.15.51-1.15 1.15v6.89zm14.12 5.79a1.14 1.14 0 00-.11 1.78l6.09 6.09h-4.08c-.59-.01-1.09.4-1.21.98-.1.63.34 1.21.96 1.31l.19.01h6.89c.63 0 1.15-.51 1.15-1.15v-6.84c.01-.59-.4-1.09-.98-1.21-.63-.1-1.21.34-1.31.96l-.01.19v4.14L19.67 18a1.3 1.3 0 00-1.55-.17M25.7 6.3v5.69c-.01.59.4 1.09.98 1.21.63.1 1.21-.34 1.31-.96l.01-.19V5.16c0-.63-.51-1.15-1.15-1.15h-6.89a1.16 1.16 0 00-1.15 1.33c.11.58.62.99 1.21.98h5.69zM6.3 25.7v-5.69c.01-.59-.4-1.09-.98-1.21-.63-.1-1.21.34-1.31.96l-.01.19v6.89c0 .63.51 1.15 1.15 1.15h6.89c.63 0 1.15-.5 1.16-1.14l-.01-.19a1.2 1.2 0 00-1.21-.98H6.29z"/></symbol><symbol id="phone-24"><path d="M20.47 16.29l-.04-.04-.04-.03-1.82-1.39c-.38-.35-.85-.55-1.33-.55s-.9.18-1.23.49l-1.55 1.24A11 11 0 018 9.54l1.18-1.49q.54-.59.55-1.3c.01-.71-.18-.91-.49-1.25L7.73 3.55l-.04-.05-.05-.05C7.34 3.17 6.89 3 6.43 3s-.92.18-1.27.51l-.91.79-.02.02-.02.02a4.3 4.3 0 00-1.2 3.02C3.01 13.55 11.39 21 16.65 21c1.17 0 2.26-.44 3.05-1.24l.02-.02.02-.03.73-.83a1.84 1.84 0 00.01-2.59zm-.61 2.04l-.74.85c-.65.65-1.53 1-2.47 1-4.87 0-12.82-7.16-12.82-12.83 0-.95.36-1.83.96-2.44l.92-.8q.3-.29.71-.29c.41 0 .52.1.65.23l1.54 1.99q.29.3.29.71c0 .41-.1.52-.35.77l-1.5 1.89.15.37a12 12 0 007.04 7.03l.36.14 1.94-1.55a1 1 0 01.69-.29q.44 0 .8.35l1.85 1.42c.39.39.4 1.03-.03 1.46z"/></symbol><symbol id="phone"><path d="M25.97 31l-.33-.01a27.7 27.7 0 01-12.02-4.26A27.66 27.66 0 011.02 6.36c-.05-.53.01-1.03.18-1.52a3.57 3.57 0 012-2.19 3.6 3.6 0 011.48-.31h4.06a3.69 3.69 0 013.64 3.16c.16 1.22.46 2.41.88 3.55a3.73 3.73 0 01-.83 3.88l-1.15 1.15a20.4 20.4 0 006.62 6.61l1.15-1.15a3.74 3.74 0 013.89-.84c1.14.43 2.33.72 3.54.88a3.71 3.71 0 013.18 3.73v4a3.6 3.6 0 01-1.2 2.72 3.55 3.55 0 01-2.49.96zM8.73 4.34H4.68a1.71 1.71 0 00-1.23.54 1.62 1.62 0 00-.43 1.27c.42 3.94 1.79 7.8 3.96 11.14a25.37 25.37 0 007.74 7.73 25.75 25.75 0 0011.13 3.96c.21.02.45 0 .67-.08a1.7 1.7 0 001.13-1.58v-4.04c.01-.41-.13-.81-.4-1.12s-.64-.52-1.05-.58a18.4 18.4 0 01-3.98-.99 1.68 1.68 0 00-1.77.38l-1.7 1.69a1 1 0 01-1.21.16 22.48 22.48 0 01-8.42-8.4c-.22-.39-.16-.89.16-1.21l1.7-1.7a1.68 1.68 0 00.37-1.76 18.26 18.26 0 01-.99-3.98 1.67 1.67 0 00-1.65-1.42zm15.9 9.3c-.47 0-.89-.33-.99-.81a5.7 5.7 0 00-4.5-4.49 1 1 0 11.39-1.97 7.63 7.63 0 016.08 6.08 1 1 0 01-.98 1.2zm5.36-.01c-.5 0-.94-.38-1-.89A11.07 11.07 0 0019.23 3a1 1 0 01-.89-1.11c.06-.55.56-.94 1.11-.89a13.06 13.06 0 0111.54 11.5 1 1 0 01-.89 1.11h-.11z"/></symbol><symbol id="plus"><path d="M20 9.47h-9.47V0H9.48v9.47H0v1.05h9.47v9.47h1.05v-9.47h9.47V9.47z"/></symbol><symbol id="support-24"><path d="M11.99 14.53c-3.84 0-6.96 2.41-6.96 5.38v1.16c0 .21.17.39.39.39h13.14c.21 0 .39-.17.39-.39v-1.16c0-2.97-3.12-5.38-6.96-5.38m6.18 6.15H5.8v-.77c0-2.54 2.77-4.61 6.19-4.61 3.41 0 6.18 2.07 6.18 4.61zM16.48 9.43a4.5 4.5 0 10-9 0 4.5 4.5 0 009 0m-4.49 3.72A3.73 3.73 0 1112 5.7a3.73 3.73 0 01-.01 7.45"/><path d="M19.41 7.3a1.5 1.5 0 00-.96-.29h-.01a6.8 6.8 0 00-6.45-4.46 6.9 6.9 0 00-6.47 4.48c-.27 0-.64.07-.96.34Q4 7.83 4 8.79v2.69c0 .95.78 1.73 1.73 1.73H7.5a4.5 4.5 0 001.71 1.28q.07.03.14.03c.15 0 .3-.09.36-.24a.4.4 0 00-.22-.5 4 4 0 01-1.59-1.3l-.05-.08a6 6 0 01-.87-2.05q-.08-.44-.08-.9a5.1 5.1 0 119.09 3.14.4.4 0 00-.04.4q.11.2.35.22h1.97c.95 0 1.73-.78 1.73-1.73V8.79q0-1.02-.59-1.48zm-1.16 5.13h-1.23a5.87 5.87 0 10-10.83-2.12v.06l.03.13q.19 1.03.73 1.93H5.73a.96.96 0 01-.96-.96V8.78q0-.59.27-.81c.26-.22.67-.15.67-.15.2.04.39-.08.44-.27a6 6 0 015.83-4.21 6 6 0 015.82 4.21c.06.2.26.32.47.27 0 0 .4-.09.65.11.24.19.29.57.29.86v2.69c0 .53-.43.96-.96.96z"/></symbol><symbol id="video-play"><path d="M36.82 29.91l-15.73 7.86q-.5.24-1.05.23A2.1 2.1 0 0118 35.88V20.15q0-.56.27-1.04a2.13 2.13 0 012.82-.87l15.73 7.86A2.2 2.2 0 0138 28.01a2.1 2.1 0 01-1.18 1.91z"/></symbol></svg>