<svg xmlns="http://www.w3.org/2000/svg" xmlns:xlink="http://www.w3.org/1999/xlink" style="display:none"><symbol id="arrow-left"><path d="M44 19.91v4.12H6.99l13.98 13.98a2 2 0 01.35 2.28 2.13 2.13 0 01-2.13 1.12 2.68 2.68 0 01-1.46-.84C13.53 36.38.64 23.51.53 23.38a2.12 2.12 0 01-.52-1.64c.06-.62.42-1.08.85-1.5 4.22-4.21 17.2-17.16 17.4-17.31a2 2 0 012.71.37 2 2 0 01-.07 2.69L7.04 19.9H44z"/></symbol><symbol id="arrow-right"><path d="M36.96 19.9L23.1 5.99a1.99 1.99 0 01-.07-2.69 2 2 0 012.71-.37c.2.14 13.18 13.1 17.4 17.31.43.42.79.88.85 1.5.06.62-.12 1.17-.52 1.64-.1.12-13 13-17.19 17.19-.42.42-.87.74-1.46.84a2.13 2.13 0 01-2.13-1.12 1.99 1.99 0 01.35-2.28l13.98-13.98H0v-4.12l36.96-.01z"/></symbol><symbol id="check-circle"><path fill-rule="evenodd" d="M10.02 3.22a9 9 0 015.65.56 1 1 0 10.81-1.83A10.99 10.99 0 1023.01 12v-.92c0-.55-.45-1-1-1s-1 .45-1 1V12a8.99 8.99 0 01-16.55 4.89 8.95 8.95 0 01.71-10.75 9 9 0 014.86-2.93zm12.69 1.49A1 1 0 1021.3 3.3l-9.29 9.3-2.29-2.29a1 1 0 10-1.41 1.41l3 3c.19.19.44.29.71.29.27 0 .52-.11.71-.29l10-10.01z"/></symbol><symbol id="dragger"><path d="M9.34 4.81a1.16 1.16 0 00-1.59 0L1 11.24c-.44.42-.44 1.1 0 1.52l6.75 6.43c.44.42 1.15.42 1.59 0 .44-.42.44-1.1 0-1.52L3.39 12l5.95-5.67c.44-.42.44-1.1 0-1.52zM35 11.24l-6.75-6.43a1.16 1.16 0 00-1.59 0c-.44.42-.44 1.1 0 1.52L32.61 12l-5.95 5.67c-.44.42-.44 1.1 0 1.52.44.42 1.15.42 1.59 0L35 12.76c.44-.42.44-1.1 0-1.52z" fill-rule="evenodd"/></symbol></svg>