<svg xmlns="http://www.w3.org/2000/svg" width="32" height="32" viewBox="0 0 32 32"><path d="M4 12.04c0 .63.5 1.15 1.14 1.16l.19-.01c.58-.11.99-.62.98-1.21V7.9l6.03 6.03c.41.47 1.13.52 1.61.11a1 1 0 0 0 .4-.86q-.01-.47-.34-.8L7.92 6.29H12c.59.01 1.09-.4 1.21-.98.1-.63-.34-1.21-.96-1.31l-.19-.01H5.17c-.63 0-1.15.51-1.15 1.15v6.89Zm14.12 5.79a1.14 1.14 0 0 0-.11 1.78l6.09 6.09h-4.08c-.59-.01-1.09.4-1.21.98-.1.63.34 1.21.96 1.31l.19.01h6.89c.63 0 1.15-.51 1.15-1.15v-6.84c.01-.59-.4-1.09-.98-1.21-.63-.1-1.21.34-1.31.96l-.01.19v4.14L19.67 18a1.3 1.3 0 0 0-1.55-.17M25.7 6.3v5.69c-.01.59.4 1.09.98 1.21.63.1 1.21-.34 1.31-.96l.01-.19V5.16c0-.63-.51-1.15-1.15-1.15h-6.89a1.16 1.16 0 0 0-1.15 1.33c.11.58.62.99 1.21.98h5.69ZM6.3 25.7v-5.69c.01-.59-.4-1.09-.98-1.21-.63-.1-1.21.34-1.31.96l-.01.19v6.89c0 .63.51 1.15 1.15 1.15h6.89c.63 0 1.15-.5 1.16-1.14l-.01-.19a1.2 1.2 0 0 0-1.21-.98H6.29Z"/></svg>