<svg xmlns="http://www.w3.org/2000/svg" width="32" height="32" viewBox="0 0 32 32"><path d="m25.97 31-.33-.01a27.7 27.7 0 0 1-12.02-4.26A27.66 27.66 0 0 1 1.02 6.36c-.05-.53.01-1.03.18-1.52a3.57 3.57 0 0 1 2-2.19 3.6 3.6 0 0 1 1.48-.31h4.06a3.69 3.69 0 0 1 3.64 3.16c.16 1.22.46 2.41.88 3.55a3.73 3.73 0 0 1-.83 3.88l-1.15 1.15a20.4 20.4 0 0 0 6.62 6.61l1.15-1.15a3.74 3.74 0 0 1 3.89-.84c1.14.43 2.33.72 3.54.88a3.71 3.71 0 0 1 3.18 3.73v4a3.6 3.6 0 0 1-1.2 2.72 3.55 3.55 0 0 1-2.49.96ZM8.73 4.34H4.68a1.71 1.71 0 0 0-1.23.54 1.62 1.62 0 0 0-.43 1.27c.42 3.94 1.79 7.8 3.96 11.14a25.37 25.37 0 0 0 7.74 7.73 25.75 25.75 0 0 0 11.13 3.96c.21.02.45 0 .67-.08a1.7 1.7 0 0 0 1.13-1.58v-4.04c.01-.41-.13-.81-.4-1.12s-.64-.52-1.05-.58a18.4 18.4 0 0 1-3.98-.99 1.68 1.68 0 0 0-1.77.38l-1.7 1.69a1 1 0 0 1-1.21.16 22.48 22.48 0 0 1-8.42-8.4c-.22-.39-.16-.89.16-1.21l1.7-1.7a1.68 1.68 0 0 0 .37-1.76 18.26 18.26 0 0 1-.99-3.98 1.67 1.67 0 0 0-1.65-1.42Zm15.9 9.3c-.47 0-.89-.33-.99-.81a5.7 5.7 0 0 0-4.5-4.49 1 1 0 1 1 .39-1.97 7.63 7.63 0 0 1 6.08 6.08 1 1 0 0 1-.98 1.2Zm5.36-.01c-.5 0-.94-.38-1-.89A11.07 11.07 0 0 0 19.23 3a1 1 0 0 1-.89-1.11c.06-.55.56-.94 1.11-.89a13.06 13.06 0 0 1 11.54 11.5 1 1 0 0 1-.89 1.11h-.11Z"/></svg>