<svg xmlns="http://www.w3.org/2000/svg" width="24" height="24" viewBox="0 0 24 24"><path d="m20.47 16.29-.04-.04-.04-.03-1.82-1.39c-.38-.35-.85-.55-1.33-.55s-.9.18-1.23.49l-1.55 1.24A11 11 0 0 1 8 9.54l1.18-1.49q.54-.59.55-1.3c.01-.71-.18-.91-.49-1.25L7.73 3.55l-.04-.05-.05-.05C7.34 3.17 6.89 3 6.43 3s-.92.18-1.27.51l-.91.79-.02.02-.02.02a4.3 4.3 0 0 0-1.2 3.02C3.01 13.55 11.39 21 16.65 21c1.17 0 2.26-.44 3.05-1.24l.02-.02.02-.03.73-.83a1.84 1.84 0 0 0 .01-2.59Zm-.61 2.04-.74.85c-.65.65-1.53 1-2.47 1-4.87 0-12.82-7.16-12.82-12.83 0-.95.36-1.83.96-2.44l.92-.8q.3-.29.71-.29c.41 0 .52.1.65.23l1.54 1.99q.29.3.29.71c0 .41-.1.52-.35.77l-1.5 1.89.15.37a12 12 0 0 0 7.04 7.03l.36.14 1.94-1.55a1 1 0 0 1 .69-.29q.44 0 .8.35l1.85 1.42c.39.39.4 1.03-.03 1.46Z"/></svg>