<svg xmlns="http://www.w3.org/2000/svg" width="24" height="24" viewBox="0 0 24 24"><path d="M11.99 14.53c-3.84 0-6.96 2.41-6.96 5.38v1.16c0 .21.17.39.39.39h13.14c.21 0 .39-.17.39-.39v-1.16c0-2.97-3.12-5.38-6.96-5.38m6.18 6.15H5.8v-.77c0-2.54 2.77-4.61 6.19-4.61 3.41 0 6.18 2.07 6.18 4.61zM16.48 9.43a4.5 4.5 0 1 0-9 0 4.5 4.5 0 0 0 9 0m-4.49 3.72A3.73 3.73 0 1 1 12 5.7a3.73 3.73 0 0 1-.01 7.45"/><path d="M19.41 7.3a1.5 1.5 0 0 0-.96-.29h-.01a6.8 6.8 0 0 0-6.45-4.46 6.9 6.9 0 0 0-6.47 4.48c-.27 0-.64.07-.96.34Q4 7.83 4 8.79v2.69c0 .95.78 1.73 1.73 1.73H7.5a4.5 4.5 0 0 0 1.71 1.28q.07.03.14.03c.15 0 .3-.09.36-.24a.4.4 0 0 0-.22-.5 4 4 0 0 1-1.59-1.3l-.05-.08a6 6 0 0 1-.87-2.05q-.08-.44-.08-.9a5.1 5.1 0 1 1 9.09 3.14.4.4 0 0 0-.04.4q.11.2.35.22h1.97c.95 0 1.73-.78 1.73-1.73V8.79q0-1.02-.59-1.48Zm-1.16 5.13h-1.23a5.87 5.87 0 1 0-10.83-2.12v.06l.03.13q.19 1.03.73 1.93H5.73a.96.96 0 0 1-.96-.96V8.78q0-.59.27-.81c.26-.22.67-.15.67-.15.2.04.39-.08.44-.27a6 6 0 0 1 5.83-4.21 6 6 0 0 1 5.82 4.21c.06.2.26.32.47.27 0 0 .4-.09.65.11.24.19.29.57.29.86v2.69c0 .53-.43.96-.96.96Z"/></svg>