<svg xmlns="http://www.w3.org/2000/svg" width="832" height="442" fill="none" viewBox="0 0 832 442"><g opacity=".05"><path fill="#4AB1E5" d="M387.13 441.39c-66.62 0-120.84-53.7-120.84-119.7v-202C266.29 53.7 320.5 0 387.13 0s120.85 53.7 120.85 119.7v202c0 65.98-54.22 119.69-120.85 119.69Zm0-393.04c-39.75 0-72.03 32.02-72.03 71.34v202c0 39.38 32.33 71.35 72.03 71.35s72.03-32.02 72.03-71.34v-202c0-39.38-32.33-71.35-72.03-71.35Z"/><path fill="#6691CB" d="M117.83 231.56C53.38 231.56.96 179.64.96 115.8.96 51.97 53.38.05 117.83.05S234.7 51.97 234.7 115.81c0 63.83-52.42 115.75-116.87 115.75Zm0-183.21c-37.52 0-68.1 30.23-68.1 67.46 0 37.21 30.52 67.45 68.1 67.45s68.1-30.24 68.1-67.45c0-37.23-30.52-67.46-68.1-67.46Z"/><path fill="#4AB1E5" d="M739.6 438.97H628.25c-49.93 0-90.58-40.2-90.58-89.71v-7.2c0-49.45 40.65-89.71 90.58-89.71H739.6c49.92 0 90.58 40.21 90.58 89.72v7.19c0 49.45-40.66 89.71-90.59 89.71ZM628.25 300.7c-23.06 0-41.77 18.58-41.77 41.37v7.19c0 22.83 18.76 41.36 41.77 41.36H739.6c23.05 0 41.76-18.58 41.76-41.36v-7.2c0-22.83-18.76-41.36-41.76-41.36H628.25Z"/><path fill="#94979B" d="M704.85 225h-38.17c-70.12 0-127.15-56.5-127.15-125.95V11.33h48.76v87.72c0 42.79 35.14 77.64 78.4 77.64h38.16c43.2 0 78.39-34.8 78.39-77.64H832C832 168.5 774.97 225 704.85 225ZM230.67 426.95H181.9v-65.68c0-28.71-23.48-52.07-52.3-52.07h-28.52c-28.9 0-52.32 23.36-52.32 52.07H0C0 305.94 45.37 260.9 101.13 260.9h28.51c55.76 0 101.13 45.04 101.13 100.38v65.67h-.1Z"/></g></svg>