<svg xmlns="http://www.w3.org/2000/svg" width="70" height="70" fill="none" viewBox="0 0 70 70"><g clip-path="url(#a)"><path fill="#3A719E" d="M22.08 35.3V19.7a4.74 4.74 0 0 1 9.4-.77 6.43 6.43 0 0 0-5.52 6.37v2.54h12.89V25.3c0-3.29-2.47-6-5.64-6.4a6.46 6.46 0 0 0-12.85.81V35.3h-5.13v6.48c0 5.52 4.23 10.08 9.62 10.6v3.5c0 .48.38.86.86.86h4.85c.48 0 .86-.38.86-.85v-3.47h7.5v3.47c0 .47.38.85.86.85h4.85c.48 0 .86-.38.86-.85v-3.56a10.64 10.64 0 0 0 9.28-10.55V35.3h-32.7v-.01ZM32.4 20.56a4.74 4.74 0 0 1 4.73 4.74v.83h-9.47v-.83a4.74 4.74 0 0 1 4.73-4.74h.01Zm-2.7 34.48h-3.14v-2.62h3.15v2.62Zm14.07 0h-3.15v-2.62h3.15v2.62Zm9.28-13.25c0 4.93-4 8.93-8.92 8.93H25.7a8.94 8.94 0 0 1-8.77-8.93v-1.5h36.12v1.5Zm0-3.21H16.94V37h36.12v1.58ZM35 0C15.7 0 0 15.7 0 35s15.7 35 35 35 35-15.7 35-35S54.3 0 35 0Zm0 68.3A33.32 33.32 0 0 1 1.7 35 33.32 33.32 0 0 1 35 1.7 33.33 33.33 0 0 1 68.3 35 33.33 33.33 0 0 1 35 68.3Z"/></g><defs><clipPath id="a"><path fill="#fff" d="M0 0h70v70H0z"/></clipPath></defs></svg>