<svg xmlns="http://www.w3.org/2000/svg" width="70" height="70" fill="none" viewBox="0 0 70 70"><g clip-path="url(#a)"><path fill="#3A719E" d="M42.16 15.68c-2.6 0-5.04.67-7.16 1.86A14.77 14.77 0 0 0 20.28 43.1 14.77 14.77 0 0 0 35 56.73c7.76 0 14.15-6.02 14.71-13.64a14.77 14.77 0 0 0-7.56-27.41h.02Zm-1.44 12.71a14.66 14.66 0 0 0-11.44 0A12.99 12.99 0 0 1 35 19.54c3 1.97 5.14 5.15 5.72 8.85Zm.17 1.96v.08c0 4.55-2.34 8.57-5.88 10.9a13.02 13.02 0 0 1-5.88-10.9v-.08a12.9 12.9 0 0 1 11.76 0Zm-20.6 10.69a12.97 12.97 0 0 1-5.48-10.62A13.06 13.06 0 0 1 33.36 18.6a14.74 14.74 0 0 0-5.9 10.71 14.76 14.76 0 0 0-7.17 11.73Zm1.67.93c0-4.37 2.17-8.25 5.49-10.62a14.72 14.72 0 0 0 5.9 10.9 12.9 12.9 0 0 1-11.39-.19v-.09Zm13.05 13.05c-6.48 0-11.9-4.76-12.88-11a14.67 14.67 0 0 0 12.89-.7 14.7 14.7 0 0 0 12.89.7c-1 6.23-6.4 11-12.88 11H35Zm13.05-12.96a12.96 12.96 0 0 1-11.4.18 14.72 14.72 0 0 0 5.9-10.89 13 13 0 0 1 5.5 10.62v.1Zm1.67-1.02a14.74 14.74 0 0 0-7.18-11.73 14.74 14.74 0 0 0-5.9-10.7A13.06 13.06 0 0 1 55.2 30.42a13 13 0 0 1-5.47 10.6ZM35 0C15.7 0 0 15.7 0 35s15.7 35 35 35 35-15.7 35-35S54.3 0 35 0Zm0 68.3A33.33 33.33 0 0 1 1.7 35 33.33 33.33 0 0 1 35 1.7 33.32 33.32 0 0 1 68.3 35 33.33 33.33 0 0 1 35 68.3Z"/></g><defs><clipPath id="a"><path fill="#fff" d="M0 0h70v70H0z"/></clipPath></defs></svg>