<svg xmlns="http://www.w3.org/2000/svg" width="70" height="70" fill="none" viewBox="0 0 70 70"><g clip-path="url(#a)"><path fill="#3A719E" d="M56.47 39.3H46.03l6.75-3.98a3.5 3.5 0 0 0 1.24-4.77l-2.18-3.7a3.48 3.48 0 0 0-4.77-1.24l-8.57 5.03 3.67-6.41a3.5 3.5 0 0 0-1.32-4.77l-3.72-2.13a3.5 3.5 0 0 0-4.76 1.32l-4.87 8.52v-7.28a3.5 3.5 0 0 0-3.49-3.5h-4.28a3.5 3.5 0 0 0-3.49 3.5v30.68h40.23a3.5 3.5 0 0 0 3.5-3.5V42.8a3.5 3.5 0 0 0-3.5-3.5ZM25.8 48.85h-7.85v-6.8h7.85v6.8Zm0-8.51h-7.85v-6.16h7.85v6.16Zm0-7.87h-7.85v-6.16h7.85v6.16Zm0-7.86h-7.85v-4.72c0-.98.78-1.79 1.78-1.79h4.28c1 0 1.79.8 1.79 1.79v4.71Zm22.13 2.47c.86-.5 1.95-.22 2.44.63l2.18 3.7c.24.41.3.9.19 1.35-.12.46-.41.85-.82 1.1l-4.07 2.38-3.98-6.77 4.06-2.39Zm-14.09-7.6a1.8 1.8 0 0 1 2.44-.66L40 20.95a1.79 1.79 0 0 1 .67 2.43l-2.34 4.1-6.82-3.9 2.32-4.1Zm-3.17 5.58 6.82 3.9-3.03 5.35-6.85-3.9 3.06-5.35Zm-3.17 7.25 6.1 3.49-3.05 5.34-3.05-1.84v-7Zm0 9.06 2.2 1.25-2.2 3.87v-5.12Zm4.04 1.5 1.29 2.21-3.84 2.26 2.55-4.47Zm2.79 5.98h-4.54l4.54-2.67v2.67Zm-.03-4.63-1.8-3.06.1-.16.97-1.7 2.45-4.3 2.53 4.3 1 1.7.06.1-3.58 2.1-1.7 1-.03.02Zm7.88 4.63h-6.15v-3.67l6.15-3.63v7.3Zm-1.1-8.62-.56-.93-3.42-5.85 5.3-3.12 3.98 6.78-3.7 2.19-1.6.93Zm8.97 8.62H43.9V41h6.15v7.85Zm8.2-1.77c0 .98-.8 1.77-1.78 1.77h-4.71V41h4.71c.98 0 1.79.8 1.79 1.79v4.29ZM23.42 45.4a1.53 1.53 0 1 1-3.07 0 1.53 1.53 0 0 1 3.07 0ZM35 0C15.7 0 0 15.7 0 35s15.7 35 35 35 35-15.7 35-35S54.3 0 35 0Zm0 68.3A33.33 33.33 0 0 1 1.7 35 33.33 33.33 0 0 1 35 1.7 33.33 33.33 0 0 1 68.3 35 33.33 33.33 0 0 1 35 68.3Z"/></g><defs><clipPath id="a"><path fill="#fff" d="M0 0h70v70H0z"/></clipPath></defs></svg>