<svg xmlns="http://www.w3.org/2000/svg" width="80" height="80" fill="none" viewBox="0 0 80 80"><g clip-path="url(#a)"><path fill="#3A719E" d="m60.2 50.23-.1-.09-.1-.08-4.34-3.32a4.65 4.65 0 0 0-3.18-1.3c-1.16 0-2.14.42-2.94 1.17l-3.69 2.95c-7.2-2.8-12.38-7.99-15.41-15.43l2.82-3.55a4.44 4.44 0 0 0 1.31-3.11c0-1.14-.42-2.17-1.18-2.98l-3.59-4.66-.1-.12-.12-.11a4.4 4.4 0 0 0-5.91.15l-2.16 1.88-.05.04-.05.05a10.25 10.25 0 0 0-2.87 7.2c0 14.77 19.98 32.54 32.53 32.54 2.79 0 5.38-1.05 7.28-2.96l.05-.05.05-.06 1.73-1.98a4.47 4.47 0 0 0 1.28-3.06 4.3 4.3 0 0 0-1.26-3.12Zm-1.45 4.86-1.77 2.03a8.27 8.27 0 0 1-5.9 2.39c-11.62 0-30.58-17.08-30.58-30.59 0-2.26.85-4.36 2.3-5.82l2.2-1.91c.45-.45 1.05-.7 1.7-.7.65 0 1.24.24 1.55.55l3.67 4.74c.45.45.7 1.05.7 1.7 0 .65-.25 1.24-.83 1.83l-3.58 4.51.35.88c3.26 8.12 8.9 13.76 16.78 16.77l.87.33 4.62-3.7a2.28 2.28 0 0 1 1.65-.69c.66 0 1.35.27 1.91.83l4.42 3.39c.94.94.95 2.46-.07 3.47l.01-.01ZM40 0C17.94 0 0 17.94 0 40s17.94 40 40 40 40-17.94 40-40S62.06 0 40 0Zm0 78.05A38.09 38.09 0 0 1 1.95 40 38.09 38.09 0 0 1 40 1.95 38.1 38.1 0 0 1 78.05 40 38.09 38.09 0 0 1 40 78.05Z"/></g><defs><clipPath id="a"><path fill="#fff" d="M0 0h80v80H0z"/></clipPath></defs></svg>